<?xml version="1.0" encoding="utf-8"?>
<!-- Generator: Adobe Illustrator 24.1.1, SVG Export Plug-In . SVG Version: 6.00 Build 0)  -->
<svg version="1.1" id="Layer_2" xmlns="http://www.w3.org/2000/svg" xmlns:xlink="http://www.w3.org/1999/xlink" x="0px" y="0px"
	 viewBox="0 0 300 300" style="enable-background:new 0 0 300 300;" xml:space="preserve">
<style type="text/css">
	.st0{fill:#FFFFFF;}
</style>
<g>
	<path class="st0" d="M157.2,40.7c-2-0.8-4.2-0.4-5.7,1.1L80,113.5H45.6c-11.5,0-20.9,9.4-20.9,20.9v31.3c0,11.5,9.4,20.9,20.9,20.9
		H80l71.6,71.6c1,1,2.3,1.5,3.7,1.5c0.7,0,1.4-0.1,2-0.4c1.9-0.8,3.2-2.7,3.2-4.8V45.6C160.4,43.5,159.2,41.5,157.2,40.7z"/>
	<path class="st0" d="M237,62.5c-2.2-1.9-5.5-1.7-7.4,0.5c-1.9,2.2-1.7,5.5,0.5,7.4c22.1,19.3,34.8,48.3,34.8,79.6
		s-12.7,60.3-34.8,79.6c-2.2,1.9-2.4,5.2-0.5,7.4c1,1.2,2.5,1.8,3.9,1.8c1.2,0,2.4-0.4,3.4-1.3c24.4-21.3,38.3-53.2,38.3-87.5
		C275.3,115.7,261.3,83.8,237,62.5z"/>
	<path class="st0" d="M210.8,83.3c-2.2-1.8-5.5-1.5-7.3,0.7c-1.8,2.2-1.5,5.5,0.7,7.4c17.9,14.8,29.4,37.8,29.4,58.6
		c0,20.8-11.6,43.8-29.4,58.6c-2.2,1.8-2.5,5.1-0.7,7.4c1,1.2,2.5,1.9,4,1.9c1.2,0,2.4-0.4,3.3-1.2C231,200,244,173.8,244,150
		C244,126.2,231,100,210.8,83.3z"/>
	<path class="st0" d="M189.6,109.2c-2.3-1.7-5.6-1.2-7.3,1.2c-1.7,2.3-1.2,5.6,1.2,7.3c8.5,6.2,18.7,16.9,18.7,32.3
		c0,15.5-10.2,26.1-18.7,32.3c-2.3,1.7-2.9,5-1.2,7.3c1,1.4,2.6,2.2,4.2,2.2c1.1,0,2.1-0.3,3.1-1c14.9-10.8,23-25.3,23-40.8
		C212.7,134.5,204.5,120,189.6,109.2z"/>
</g>
</svg>
