<?xml version="1.0" encoding="utf-8"?>
<!-- Generator: Adobe Illustrator 22.0.0, SVG Export Plug-In . SVG Version: 6.00 Build 0)  -->
<svg version="1.1" id="Layer_1" xmlns="http://www.w3.org/2000/svg" xmlns:xlink="http://www.w3.org/1999/xlink" x="0px" y="0px"
	 viewBox="0 0 481.1 90.9" style="enable-background:new 0 0 481.1 90.9;" xml:space="preserve">
<style type="text/css">
	.st0{fill:#2B3990;}
	.st1{fill:#808285;}
	.st2{fill:none;stroke:#808285;stroke-width:1.5991;stroke-miterlimit:10;}
	.st3{fill:none;stroke:#808285;stroke-width:1.8309;stroke-miterlimit:10;}
	.st4{fill:url(#SVGID_1_);}
	.st5{fill:url(#SVGID_2_);}
	.st6{fill:url(#SVGID_3_);}
	.st7{fill:url(#SVGID_4_);}
	.st8{fill:url(#SVGID_5_);}
	.st9{fill:url(#SVGID_6_);}
	.st10{fill:url(#SVGID_7_);}
	.st11{fill:url(#SVGID_8_);}
	.st12{fill:url(#SVGID_9_);}
	.st13{fill:url(#SVGID_10_);}
	.st14{fill:url(#SVGID_11_);}
	.st15{fill:url(#SVGID_12_);}
	.st16{fill:url(#SVGID_13_);}
	.st17{fill:url(#SVGID_14_);}
	.st18{fill:url(#SVGID_15_);}
	.st19{fill:url(#SVGID_16_);}
</style>
<g>
	<path class="st0" d="M154.3,19.6c-0.8,1.1-2,2-3.6,2.8s-3.2,1.1-5,1.1c-3.6,0-6.5-1.1-8.6-3.2c-2.1-2.1-3.2-5-3.2-8.5
		c0-3.3,1-6.1,3.1-8.4c2.1-2.2,4.9-3.3,8.3-3.3c1.9,0,3.6,0.3,5.1,1c1.5,0.7,2.7,1.6,3.5,2.6l-1.4,1.5c-1-1-2.1-1.7-3.2-2.2
		c-1.1-0.5-2.5-0.7-4.1-0.7c-2.8,0-5,0.9-6.6,2.6c-1.6,1.8-2.4,4.1-2.4,6.9c0,2.9,0.9,5.2,2.6,6.9c1.8,1.7,4.1,2.6,6.9,2.6
		c3,0,5.4-1,7.2-3.1L154.3,19.6z"/>
	<path class="st0" d="M174.5,12.6h-14.7v10.5h-2.3V0.3h2.3v10.1h14.7V0.3h2.3v22.8h-2.3V12.6z"/>
	<path class="st0" d="M181.8,0.3h16.3v2.2h-14v8h13v2.2h-13V21h14.3v2.2h-16.6V0.3z"/>
	<path class="st0" d="M215.2,14.7c-0.7-0.6-1.6-1.1-2.7-1.4c-1.1-0.3-2.2-0.6-3.5-0.9c-1.3-0.3-2.4-0.7-3.5-1.1
		c-1.1-0.4-2-1-2.7-1.9c-0.7-0.9-1.1-2-1.1-3.3c0-1.7,0.8-3.2,2.3-4.4c1.5-1.2,3.5-1.8,6-1.8c3.7,0,6.4,1,8.1,3.1l-1.5,1.5
		c-1.7-1.6-3.9-2.4-6.7-2.4c-0.6,0-1.3,0.1-1.9,0.2c-0.7,0.1-1.3,0.4-1.9,0.6c-0.6,0.3-1.1,0.7-1.5,1.2c-0.4,0.5-0.6,1.1-0.6,1.8
		c0,0.8,0.3,1.6,0.8,2.1c0.5,0.6,1.2,1,2.1,1.3c0.9,0.3,1.8,0.6,2.8,0.8c1,0.3,2,0.5,3.1,0.8c1,0.3,2,0.7,2.8,1.1
		c0.9,0.4,1.6,1,2.1,1.8c0.5,0.8,0.8,1.7,0.8,2.9c0,1.9-0.8,3.4-2.3,4.6c-1.5,1.2-3.5,1.8-5.8,1.8c-2,0-3.8-0.4-5.4-1.2
		c-1.7-0.8-2.9-1.8-3.8-3.1l1.6-1.6c0.8,1,1.8,1.9,3.2,2.6s2.9,1.1,4.7,1.1c1.5,0,2.8-0.4,3.9-1.1c1.1-0.8,1.6-1.7,1.6-3
		C216.3,16.2,216,15.4,215.2,14.7z"/>
	<path class="st0" d="M230.3,0.2h1.9l10,22.9h-2.4l-2.8-6.3h-11.7l-2.7,6.3h-2.3L230.3,0.2z M226.2,14.8h9.9l-5-11.5L226.2,14.8z"/>
	<path class="st0" d="M244.8,23.1V0.3h8.2c6.2,0,9.3,2.3,9.3,7c0,2-0.7,3.7-2.2,5c-1.5,1.3-3.8,2-7.1,2h-5.9v8.8H244.8z M247.1,2.4
		v9.8h5.8c2.3,0,4.1-0.4,5.3-1.3c1.2-0.9,1.7-2.1,1.7-3.6c0-3.2-2.2-4.8-6.7-4.8H247.1z"/>
	<path class="st0" d="M266,0.3h16.3v2.2h-14v8h13v2.2h-13V21h14.3v2.2H266V0.3z"/>
	<path class="st0" d="M294.5,0.2h1.9l10,22.9h-2.4l-2.8-6.3h-11.7l-2.7,6.3h-2.3L294.5,0.2z M290.4,14.8h9.9l-5-11.5L290.4,14.8z"/>
	<path class="st0" d="M309,0.3h2.3V12l12.4-11.7h3l-11.1,10.4l11.9,12.4h-3.2L314,12.2l-2.7,2.5v8.4H309V0.3z"/>
	<path class="st0" d="M330.2,0.3h16.3v2.2h-14v8h13v2.2h-13V21h14.3v2.2h-16.6V0.3z"/>
</g>
<g>
	<g>
		<path class="st1" d="M149.5,68h18.6v2.2H160v20.7h-2.3V70.2h-8.2V68z"/>
		<path class="st1" d="M169.7,68h2.3v22.8h-2.3V68z"/>
		<path class="st1" d="M177.4,68h16.3v2.2h-14v8h13v2.2h-13v8.4H194v2.2h-16.6V68z"/>
		<path class="st1" d="M198.2,90.9V68h8.6c5.8,0,8.7,2.2,8.7,6.7c0,1.7-0.5,3.1-1.6,4.2c-1.1,1.2-2.5,1.9-4.3,2.2l7.6,9.8h-2.8
			l-7.2-9.3h-6.7v9.3H198.2z M200.5,70.2v9.2h6.4c1.9,0,3.4-0.4,4.5-1.3c1.1-0.9,1.7-2,1.7-3.4c0-3-2.1-4.5-6.4-4.5H200.5z"/>
		<path class="st1" d="M233.6,67.9h1.4v23h-2.2V70.5l-6.4,3l-0.8-1.9L233.6,67.9z"/>
		<path class="st1" d="M267.9,90.9L253,72.2v18.7h-2.2V68h1.8l14.9,18.7V68h2.2v22.8H267.9z"/>
		<path class="st1" d="M273.5,68h16.3v2.2h-14v8h13v2.2h-13v8.4h14.3v2.2h-16.6V68z"/>
		<path class="st1" d="M293.6,90.9V68h8.2c6.2,0,9.3,2.3,9.3,7c0,2-0.7,3.7-2.2,5c-1.5,1.3-3.8,2-7.1,2h-5.9v8.8H293.6z M295.9,70.2
			v9.8h5.8c2.3,0,4.1-0.4,5.3-1.3c1.2-0.9,1.7-2.1,1.7-3.6c0-3.2-2.2-4.8-6.7-4.8H295.9z"/>
		<path class="st1" d="M317.8,68h1.9l10,22.9h-2.4l-2.8-6.3h-11.7l-2.7,6.3h-2.3L317.8,68z M313.7,82.5h9.9l-5-11.5L313.7,82.5z"/>
	</g>
	<line class="st2" x1="146.3" y1="70" x2="81.4" y2="70"/>
	<line class="st3" x1="399.6" y1="69.4" x2="327.5" y2="69.4"/>
</g>
<g>
	<g>
		<linearGradient id="SVGID_1_" gradientUnits="userSpaceOnUse" x1="12.6875" y1="31.14" x2="12.6875" y2="60.8534">
			<stop  offset="0" style="stop-color:#00AEEF"/>
			<stop  offset="0.9638" style="stop-color:#2B3990"/>
		</linearGradient>
		<path class="st4" d="M0,29.7h13.3c4,0,6.8,0.7,8.4,2.1c1.7,1.4,2.5,3.3,2.5,5.8c0,3.1-1.3,5.5-3.8,7c3.2,1,4.9,3.5,4.9,7.4
			c0,3.1-1.1,5.4-3.3,6.9c-2.2,1.5-5.2,2.2-9,2.2H0V29.7z M5.4,34.8v7.8h7.8c1.7,0,3.1-0.3,4-1c1-0.7,1.4-1.6,1.4-2.8
			c0-1.4-0.4-2.4-1.3-3c-0.9-0.6-2.5-1-4.7-1H5.4z M5.4,47.5V56h7.3c2.5,0,4.2-0.3,5.3-1c1.1-0.7,1.7-1.8,1.7-3.3
			c0-1.4-0.5-2.4-1.5-3.1c-1-0.7-2.7-1-5.1-1H5.4z"/>
		<linearGradient id="SVGID_2_" gradientUnits="userSpaceOnUse" x1="41.3615" y1="31.14" x2="41.3615" y2="60.8534">
			<stop  offset="0" style="stop-color:#00AEEF"/>
			<stop  offset="0.9638" style="stop-color:#2B3990"/>
		</linearGradient>
		<path class="st5" d="M39.3,29.7h4.1l13.8,31.4h-5.7l-3.1-7H34.1l-3,7h-5.6L39.3,29.7z M36.1,49.5h10.3l-5.2-11.9L36.1,49.5z"/>
		<linearGradient id="SVGID_3_" gradientUnits="userSpaceOnUse" x1="64.8665" y1="31.14" x2="64.8665" y2="60.8534">
			<stop  offset="0" style="stop-color:#00AEEF"/>
			<stop  offset="0.9638" style="stop-color:#2B3990"/>
		</linearGradient>
		<path class="st6" d="M67.5,47.5v13.6h-5.4V47.5L49.5,29.7h6.7l8.7,12.5l8.8-12.5h6.5L67.5,47.5z"/>
		<linearGradient id="SVGID_4_" gradientUnits="userSpaceOnUse" x1="106.4763" y1="31.14" x2="106.4763" y2="60.8534">
			<stop  offset="0" style="stop-color:#00AEEF"/>
			<stop  offset="0.9638" style="stop-color:#2B3990"/>
		</linearGradient>
		<path class="st7" d="M120.9,55.6c-1.3,1.8-3.1,3.3-5.3,4.3c-2.3,1-4.7,1.5-7.4,1.5c-4.9,0-8.9-1.5-11.8-4.4
			c-2.9-2.9-4.4-6.8-4.4-11.7c0-4.6,1.5-8.4,4.4-11.5c3-3.1,6.8-4.6,11.6-4.6c2.8,0,5.2,0.5,7.4,1.5c2.2,1,3.8,2.3,4.9,3.9l-3.6,3.4
			c-2.2-2.4-5-3.6-8.5-3.6c-3.2,0-5.8,1-7.8,3c-1.9,2-2.9,4.6-2.9,7.9c0,3.3,1,5.9,3,7.9c2,2,4.6,3,7.9,3c3.8,0,6.9-1.4,9.2-4.1
			L120.9,55.6z"/>
		<linearGradient id="SVGID_5_" gradientUnits="userSpaceOnUse" x1="138.3849" y1="31.14" x2="138.3849" y2="60.8534">
			<stop  offset="0" style="stop-color:#00AEEF"/>
			<stop  offset="0.9638" style="stop-color:#2B3990"/>
		</linearGradient>
		<path class="st8" d="M124.8,61.1V29.7h12.4c2.4,0,4.4,0.3,6.1,0.8c1.7,0.5,3,1.3,3.8,2.2c0.9,0.9,1.5,2,1.9,3.1
			c0.4,1.1,0.6,2.3,0.6,3.7c0,2.2-0.6,4.1-1.9,5.7c-1.3,1.6-2.9,2.8-5,3.4l9.4,12.6h-6.6l-8.6-11.5h-6.6v11.5H124.8z M130.2,34.8
			v9.7h7.1c2.1,0,3.7-0.4,4.9-1.3c1.2-0.9,1.8-2.1,1.8-3.7c0-1.5-0.5-2.6-1.5-3.5c-1-0.8-2.8-1.2-5.3-1.2H130.2z"/>
		<linearGradient id="SVGID_6_" gradientUnits="userSpaceOnUse" x1="168.6785" y1="31.14" x2="168.6785" y2="60.8534">
			<stop  offset="0" style="stop-color:#00AEEF"/>
			<stop  offset="0.9638" style="stop-color:#2B3990"/>
		</linearGradient>
		<path class="st9" d="M157.2,33.9c3.1-3.1,6.9-4.6,11.4-4.6c4.5,0,8.3,1.5,11.4,4.6c3.1,3.1,4.6,6.9,4.6,11.5
			c0,4.6-1.6,8.4-4.7,11.5c-3.1,3.1-6.9,4.6-11.4,4.6c-4.5,0-8.3-1.5-11.4-4.6c-3.1-3.1-4.7-6.9-4.7-11.5
			C152.6,40.9,154.1,37,157.2,33.9z M161.3,53.2c2,2,4.5,3.1,7.4,3.1c3,0,5.4-1,7.4-3c2-2,3-4.6,3-7.8c0-3.2-1-5.8-3.1-7.8
			c-2.1-2-4.5-3.1-7.3-3.1c-2.9,0-5.3,1-7.4,3c-2,2-3.1,4.6-3.1,7.8C158.3,48.6,159.3,51.2,161.3,53.2z"/>
		<linearGradient id="SVGID_7_" gradientUnits="userSpaceOnUse" x1="200.2741" y1="31.14" x2="200.2741" y2="60.8534">
			<stop  offset="0" style="stop-color:#00AEEF"/>
			<stop  offset="0.9638" style="stop-color:#2B3990"/>
		</linearGradient>
		<path class="st10" d="M206.5,50.1c-0.7-0.7-1.6-1.2-2.8-1.5c-1.1-0.4-2.4-0.7-3.8-1c-1.4-0.3-2.8-0.7-4.1-1.1
			c-1.4-0.4-2.6-1-3.8-1.6c-1.1-0.6-2.1-1.5-2.8-2.6c-0.7-1.1-1.1-2.5-1.1-4c0-2.5,1.2-4.6,3.5-6.3c2.3-1.7,5.3-2.6,8.8-2.6
			c5.2,0,9.2,1.5,12.2,4.5l-3,3.9c-2.6-2.2-5.7-3.3-9.3-3.3c-1.9,0-3.4,0.3-4.7,0.9c-1.3,0.6-1.9,1.5-1.9,2.8c0,1,0.5,1.8,1.4,2.4
			c1,0.6,2.2,1.1,3.6,1.4c1.4,0.3,3,0.7,4.7,1.2c1.7,0.5,3.2,1,4.7,1.6c1.4,0.6,2.6,1.5,3.6,2.8c1,1.3,1.4,2.8,1.4,4.6
			c0,2.7-1.2,5-3.5,6.7c-2.3,1.7-5.2,2.6-8.6,2.6c-2.8,0-5.4-0.5-7.9-1.6c-2.5-1.1-4.5-2.5-5.9-4.1l3.2-3.8c2.8,3,6.5,4.5,11.1,4.5
			c1.9,0,3.4-0.3,4.4-1c1-0.7,1.6-1.6,1.6-2.8C207.6,51.6,207.3,50.8,206.5,50.1z"/>
		<linearGradient id="SVGID_8_" gradientUnits="userSpaceOnUse" x1="228.6131" y1="31.14" x2="228.6131" y2="60.8534">
			<stop  offset="0" style="stop-color:#00AEEF"/>
			<stop  offset="0.9638" style="stop-color:#2B3990"/>
		</linearGradient>
		<path class="st11" d="M234.9,50.1c-0.7-0.7-1.6-1.2-2.8-1.5c-1.1-0.4-2.4-0.7-3.8-1c-1.4-0.3-2.8-0.7-4.1-1.1
			c-1.4-0.4-2.6-1-3.8-1.6c-1.1-0.6-2.1-1.5-2.8-2.6c-0.7-1.1-1.1-2.5-1.1-4c0-2.5,1.2-4.6,3.5-6.3c2.3-1.7,5.3-2.6,8.8-2.6
			c5.2,0,9.2,1.5,12.2,4.5l-3,3.9c-2.6-2.2-5.7-3.3-9.3-3.3c-1.9,0-3.4,0.3-4.7,0.9c-1.3,0.6-1.9,1.5-1.9,2.8c0,1,0.5,1.8,1.4,2.4
			c1,0.6,2.2,1.1,3.6,1.4c1.4,0.3,3,0.7,4.7,1.2c1.7,0.5,3.2,1,4.7,1.6c1.4,0.6,2.6,1.5,3.6,2.8c1,1.3,1.4,2.8,1.4,4.6
			c0,2.7-1.2,5-3.5,6.7c-2.3,1.7-5.2,2.6-8.6,2.6c-2.8,0-5.4-0.5-7.9-1.6c-2.5-1.1-4.5-2.5-5.9-4.1l3.2-3.8c2.8,3,6.5,4.5,11.1,4.5
			c1.9,0,3.4-0.3,4.4-1c1-0.7,1.6-1.6,1.6-2.8C236,51.6,235.6,50.8,234.9,50.1z"/>
		<linearGradient id="SVGID_9_" gradientUnits="userSpaceOnUse" x1="248.7783" y1="31.14" x2="248.7783" y2="60.8534">
			<stop  offset="0" style="stop-color:#00AEEF"/>
			<stop  offset="0.9638" style="stop-color:#2B3990"/>
		</linearGradient>
		<path class="st12" d="M246.1,29.7h5.4v31.4h-5.4V29.7z"/>
		<linearGradient id="SVGID_10_" gradientUnits="userSpaceOnUse" x1="271.2106" y1="31.14" x2="271.2106" y2="60.8534">
			<stop  offset="0" style="stop-color:#00AEEF"/>
			<stop  offset="0.9638" style="stop-color:#2B3990"/>
		</linearGradient>
		<path class="st13" d="M280.4,61.1l-17.3-21.4v21.4h-5.3V29.7h4.2l17.3,21.5V29.7h5.3v31.4H280.4z"/>
		<linearGradient id="SVGID_11_" gradientUnits="userSpaceOnUse" x1="302.9022" y1="31.14" x2="302.9022" y2="60.8534">
			<stop  offset="0" style="stop-color:#00AEEF"/>
			<stop  offset="0.9638" style="stop-color:#2B3990"/>
		</linearGradient>
		<path class="st14" d="M303.9,44.3h13.6v12.2c-1.4,1.6-3.3,2.8-5.5,3.7s-4.5,1.3-6.9,1.3c-4.9,0-8.9-1.5-12.1-4.4
			c-3.1-2.9-4.7-6.8-4.7-11.7c0-4.6,1.5-8.4,4.6-11.5c3.1-3.1,6.9-4.6,11.6-4.6c2.7,0,5.1,0.4,7.3,1.3c2.2,0.9,3.8,2.1,5,3.7
			l-3.6,3.5c-2-2.2-4.8-3.3-8.4-3.3c-3.3,0-5.9,1-7.8,2.9c-2,2-2.9,4.6-2.9,7.9c0,3.4,1,6,3.1,8c2.1,1.9,4.8,2.9,8.1,2.9
			c2.8,0,5.2-0.7,7.1-2.2v-4.8h-8.4V44.3z"/>
	</g>
	<linearGradient id="SVGID_12_" gradientUnits="userSpaceOnUse" x1="347.5402" y1="31.14" x2="347.5402" y2="60.8534">
		<stop  offset="0" style="stop-color:#00AEEF"/>
		<stop  offset="0.9638" style="stop-color:#2B3990"/>
	</linearGradient>
	<path class="st15" d="M353.8,50.1c-0.7-0.7-1.7-1.2-2.8-1.6c-1.1-0.4-2.4-0.7-3.8-1s-2.8-0.7-4.1-1.1s-2.6-1-3.8-1.6
		c-1.1-0.6-2.1-1.5-2.8-2.6c-0.7-1.1-1.1-2.5-1.1-4c0-2.5,1.2-4.6,3.5-6.3c2.3-1.7,5.3-2.6,8.8-2.6c5.2,0,9.3,1.5,12.2,4.5l-3,3.9
		c-2.6-2.2-5.8-3.3-9.4-3.3c-1.9,0-3.4,0.3-4.7,0.9c-1.3,0.6-1.9,1.5-1.9,2.8c0,1,0.5,1.8,1.4,2.5s2.2,1.1,3.6,1.4
		c1.4,0.3,3,0.7,4.7,1.2c1.7,0.5,3.2,1,4.7,1.6c1.4,0.6,2.6,1.5,3.6,2.8s1.4,2.8,1.4,4.6c0,2.7-1.2,5-3.5,6.7
		c-2.3,1.7-5.2,2.6-8.6,2.6c-2.8,0-5.4-0.5-8-1.6c-2.5-1.1-4.5-2.5-5.9-4.1l3.2-3.8c2.8,3,6.6,4.5,11.1,4.5c1.9,0,3.4-0.3,4.4-1
		s1.6-1.6,1.6-2.8C354.9,51.6,354.5,50.8,353.8,50.1z"/>
	<linearGradient id="SVGID_13_" gradientUnits="userSpaceOnUse" x1="375.2155" y1="31.14" x2="375.2155" y2="60.8534">
		<stop  offset="0" style="stop-color:#00AEEF"/>
		<stop  offset="0.9638" style="stop-color:#2B3990"/>
	</linearGradient>
	<path class="st16" d="M361.9,29.6h26.6v5.1h-10.6v26.4h-5.4V34.7h-10.6V29.6z"/>
	<linearGradient id="SVGID_14_" gradientUnits="userSpaceOnUse" x1="404.8693" y1="31.14" x2="404.8693" y2="60.8534">
		<stop  offset="0" style="stop-color:#00AEEF"/>
		<stop  offset="0.9638" style="stop-color:#2B3990"/>
	</linearGradient>
	<path class="st17" d="M418.3,47.7c0,2.4-0.4,4.5-1.1,6.3s-1.7,3.2-3,4.3c-1.3,1-2.7,1.8-4.2,2.4c-1.5,0.5-3.1,0.8-4.8,0.8
		c-3.9,0-7.2-1.2-9.9-3.7c-2.7-2.4-4-5.9-4-10.3V29.6h5.4v17.1c0,2.9,0.8,5.2,2.3,7c1.6,1.8,3.6,2.6,6.1,2.6c2.5,0,4.4-0.9,5.7-2.6
		c1.3-1.7,1.9-4,1.9-6.8V29.6h5.4V47.7z"/>
	<linearGradient id="SVGID_15_" gradientUnits="userSpaceOnUse" x1="438.1696" y1="31.14" x2="438.1696" y2="60.8534">
		<stop  offset="0" style="stop-color:#00AEEF"/>
		<stop  offset="0.9638" style="stop-color:#2B3990"/>
	</linearGradient>
	<path class="st18" d="M424.4,29.6h9.9c3.1,0,5.9,0.4,8.3,1.2c2.4,0.8,4.2,1.9,5.6,3.4c1.3,1.5,2.3,3.1,3,4.8
		c0.6,1.8,0.9,3.7,0.9,5.9c0,4.8-1.5,8.7-4.6,11.7c-3.1,3-7.6,4.5-13.7,4.5h-9.3V29.6z M429.8,34.7V56h4.2c4.2,0,7.3-1,9.2-2.9
		c2-2,3-4.7,3-8.1c0-6.8-4-10.2-12.1-10.2H429.8z"/>
	<linearGradient id="SVGID_16_" gradientUnits="userSpaceOnUse" x1="465.6642" y1="31.14" x2="465.6642" y2="60.8534">
		<stop  offset="0" style="stop-color:#00AEEF"/>
		<stop  offset="0.9638" style="stop-color:#2B3990"/>
	</linearGradient>
	<path class="st19" d="M468.3,47.5v13.6h-5.4V47.5l-12.6-17.9h6.8l8.7,12.6l8.9-12.6h6.5L468.3,47.5z"/>
</g>
</svg>
