<?xml version="1.0" encoding="utf-8"?>
<!-- Generator: Adobe Illustrator 24.1.1, SVG Export Plug-In . SVG Version: 6.00 Build 0)  -->
<svg version="1.1" id="Layer_2" xmlns="http://www.w3.org/2000/svg" xmlns:xlink="http://www.w3.org/1999/xlink" x="0px" y="0px"
	 viewBox="0 0 300 300" style="enable-background:new 0 0 300 300;" xml:space="preserve">
<style type="text/css">
	.st0{fill:#FCFCFC;}
</style>
<path class="st0" d="M153.4,35.9C83,35.9,25.7,83.1,25.7,141.1c0,27.4,12.5,53.1,35.4,72.7l-25.7,51.2c-1,2-0.6,4.5,0.9,6.1
	c1,1.1,2.4,1.6,3.8,1.6c0.8,0,1.5-0.2,2.2-0.5l68.5-31.9c13.6,3.9,27.9,5.9,42.5,5.9c70.4,0,127.8-47.2,127.8-105.2
	S223.9,35.9,153.4,35.9z M100.2,153c-8.8,0-16-7.2-16-16c0-8.8,7.1-16,16-16s16,7.2,16,16C116.2,145.9,109,153,100.2,153z
	 M153.4,153c-8.8,0-16-7.2-16-16c0-8.8,7.1-16,16-16s16,7.2,16,16C169.4,145.9,162.3,153,153.4,153z M206.7,153c-8.8,0-16-7.2-16-16
	c0-8.8,7.1-16,16-16c8.8,0,16,7.2,16,16C222.7,145.9,215.5,153,206.7,153z"/>
</svg>
