<?xml version="1.0" encoding="utf-8"?>
<!-- Generator: Adobe Illustrator 24.1.1, SVG Export Plug-In . SVG Version: 6.00 Build 0)  -->
<svg version="1.1" id="Layer_2" xmlns="http://www.w3.org/2000/svg" xmlns:xlink="http://www.w3.org/1999/xlink" x="0px" y="0px"
	 viewBox="0 0 300 300" style="enable-background:new 0 0 300 300;" xml:space="preserve">
<style type="text/css">
	.st0{fill:#FCFCFC;}
</style>
<g>
	<path class="st0" d="M150,55.3c-26.1,0-47.4,21.2-47.4,47.4S123.9,150,150,150c9.7,0,18.9-2.8,26.8-8.2c2.2-1.5,2.7-4.4,1.2-6.6
		c-1.5-2.2-4.4-2.7-6.6-1.2c-6.3,4.3-13.7,6.6-21.4,6.6c-20.9,0-37.9-17-37.9-37.9c0-20.9,17-37.9,37.9-37.9s37.9,17,37.9,37.9v3.7
		c0,4.5-3.7,8.2-8.2,8.2c-4.5,0-8.2-3.7-8.2-8.2v-3.7c0-11.8-9.6-21.4-21.4-21.4s-21.4,9.6-21.4,21.4c0,11.8,9.6,21.4,21.4,21.4
		c6.2,0,11.8-2.7,15.7-6.9c3.2,4.2,8.3,6.9,14,6.9c9.8,0,17.7-7.9,17.7-17.7v-3.7C197.4,76.5,176.1,55.3,150,55.3z M150,114.6
		c-6.6,0-11.9-5.4-11.9-11.9c0-6.6,5.4-11.9,11.9-11.9s11.9,5.4,11.9,11.9C161.9,109.2,156.6,114.6,150,114.6z"/>
	<path class="st0" d="M204.7,187.1c-0.8,0.5-1.7,0.8-2.6,0.8c-1.5,0-3-0.7-3.9-2.1c-1.5-2.2-0.9-5.1,1.3-6.6l59.5-39.7l-33.2-22.8
		V41.1c0-2.6-2.1-4.7-4.7-4.7H79c-2.6,0-4.7,2.1-4.7,4.7v75.7L41,139.5l59.5,39.7c2.2,1.5,2.8,4.4,1.3,6.6c-0.9,1.4-2.4,2.1-3.9,2.1
		c-0.9,0-1.8-0.3-2.6-0.8l-58.9-39.3v96.9c0,10.4,8.5,18.9,18.9,18.9h189.4c10.4,0,18.9-8.5,18.9-18.9v-96.9L204.7,187.1z
		 M83.7,159.5V45.8h132.6v113.7H83.7z M234.2,233.5c-0.9,1.2-2.3,1.8-3.7,1.8c-1,0-2.1-0.3-3-1l-46.1-36.9h-63l-46.1,36.9
		c-2,1.6-5,1.3-6.7-0.7c-1.6-2-1.3-5,0.7-6.7l47.4-37.9c0.8-0.7,1.9-1,3-1h66.3c1.1,0,2.1,0.4,3,1l47.4,37.9
		C235.5,228.5,235.8,231.4,234.2,233.5z"/>
</g>
</svg>
