<?xml version="1.0" encoding="utf-8"?>
<!-- Generator: Adobe Illustrator 24.2.0, SVG Export Plug-In . SVG Version: 6.00 Build 0)  -->
<svg version="1.1" id="Layer_2_1_" xmlns="http://www.w3.org/2000/svg" xmlns:xlink="http://www.w3.org/1999/xlink" x="0px" y="0px"
	 viewBox="0 0 300 300" style="enable-background:new 0 0 300 300;" xml:space="preserve">
<style type="text/css">
	.st0{fill:#195D8B;stroke:#195D8B;stroke-width:0.5;stroke-miterlimit:10;}
	.st1{fill:#FCFCFC;}
</style>
<circle class="st0" cx="150" cy="150" r="140.5"/>
<g>
	<path class="st1" d="M150,64.5c-21.8,0-39.5,17.7-39.5,39.5s17.8,39.4,39.5,39.4c8.1,0,15.8-2.3,22.3-6.8c1.8-1.3,2.3-3.7,1-5.5
		s-3.7-2.3-5.5-1c-5.3,3.6-11.4,5.5-17.8,5.5c-17.4,0-31.6-14.2-31.6-31.6s14.2-31.6,31.6-31.6s31.6,14.2,31.6,31.6v3.1
		c0,3.8-3.1,6.8-6.8,6.8c-3.8,0-6.8-3.1-6.8-6.8V104c0-9.8-8-17.8-17.8-17.8s-17.8,8-17.8,17.8s8,17.8,17.8,17.8
		c5.2,0,9.8-2.3,13.1-5.8c2.7,3.5,6.9,5.8,11.7,5.8c8.2,0,14.8-6.6,14.8-14.8v-3C189.5,82.1,171.8,64.5,150,64.5z M150,113.9
		c-5.5,0-9.9-4.5-9.9-9.9c0-5.5,4.5-9.9,9.9-9.9s9.9,4.5,9.9,9.9S155.5,113.9,150,113.9z"/>
	<path class="st1" d="M195.6,174.3c-0.7,0.4-1.4,0.7-2.2,0.7c-1.3,0-2.5-0.6-3.3-1.8c-1.3-1.8-0.8-4.3,1.1-5.5l49.6-33.1l-27.7-19
		v-63c0-2.2-1.8-3.9-3.9-3.9H90.8c-2.2,0-3.9,1.8-3.9,3.9v63.1l-27.8,18.9l49.6,33.1c1.8,1.3,2.3,3.7,1.1,5.5
		c-0.8,1.2-2,1.8-3.3,1.8c-0.8,0-1.5-0.3-2.2-0.7l-49.1-32.8v80.8c0,8.7,7.1,15.8,15.8,15.8h157.9c8.7,0,15.8-7.1,15.8-15.8v-80.8
		L195.6,174.3z M94.7,151.3V56.5h110.5v94.8H94.7z M220.2,213c-0.8,1-1.9,1.5-3.1,1.5c-0.8,0-1.8-0.3-2.5-0.8l-38.4-30.8h-52.5
		l-38.4,30.8c-1.7,1.3-4.2,1.1-5.6-0.6c-1.3-1.7-1.1-4.2,0.6-5.6l39.5-31.6c0.7-0.6,1.6-0.8,2.5-0.8h55.3c0.9,0,1.8,0.3,2.5,0.8
		l39.5,31.6C221.3,208.8,221.5,211.3,220.2,213z"/>
</g>
</svg>
