<?xml version="1.0" encoding="utf-8"?>
<!-- Generator: Adobe Illustrator 24.2.3, SVG Export Plug-In . SVG Version: 6.00 Build 0)  -->
<svg version="1.1" id="Layer_2_1_" xmlns="http://www.w3.org/2000/svg" xmlns:xlink="http://www.w3.org/1999/xlink" x="0px" y="0px"
	 viewBox="0 0 300 300" style="enable-background:new 0 0 300 300;" xml:space="preserve">
<style type="text/css">
	.st0{fill:#FFFFFF;}
</style>
<g>
	<g>
		<path class="st0" d="M102.8,253.6c-2.2,0-4-1.8-4-4V81.9c0-2.2,1.8-4,4-4s4,1.8,4,4v167.7C106.8,251.8,105,253.6,102.8,253.6z"/>
	</g>
	<g>
		<path class="st0" d="M176.2,138.3c-2.2,0-4-1.8-4-4V29.5c0-2.2,1.8-4,4-4s4,1.8,4,4v104.8C180.2,136.5,178.4,138.3,176.2,138.3z"
			/>
	</g>
	<g>
		<path class="st0" d="M102.8,253.6c-0.8,0-1.6-0.2-2.3-0.7l-73.4-52.4c-1.1-0.8-1.7-2-1.7-3.3V29.5c0-1.5,0.8-2.9,2.2-3.6
			c1.3-0.7,2.9-0.6,4.2,0.3l71,50.7l71-50.7c1.4-1,3.3-1,4.7,0l73.4,52.4c1.1,0.8,1.7,2,1.7,3.3v73.4c0,2.2-1.8,4-4,4s-4-1.8-4-4
			V83.9l-69.4-49.5l-71,50.7c-1.4,1-3.3,1-4.6,0l-67-47.9v157.9l69.4,49.5l39.6-28.3c1.8-1.3,4.3-0.9,5.6,0.9s0.9,4.3-0.9,5.6
			l-41.9,29.9C104.5,253.3,103.7,253.6,102.8,253.6z"/>
	</g>
	<g>
		<path class="st0" d="M205.6,249.5c-24.2,0-43.9-19.7-43.9-43.9c0-24.2,19.7-43.9,43.9-43.9c24.2,0,43.9,19.7,43.9,43.9
			C249.5,229.8,229.8,249.5,205.6,249.5z M205.6,169.7c-19.8,0-35.9,16.1-35.9,35.9c0,19.8,16.1,35.9,35.9,35.9
			c19.8,0,35.9-16.1,35.9-35.9C241.5,185.8,225.4,169.7,205.6,169.7z"/>
	</g>
	<g>
		<path class="st0" d="M270.5,274.5c-1,0-2-0.4-2.8-1.2L231,236.7c-1.6-1.6-1.6-4.1,0-5.7c1.6-1.6,4.1-1.6,5.7,0l36.7,36.7
			c1.6,1.6,1.6,4.1,0,5.7C272.6,274.1,271.5,274.5,270.5,274.5z"/>
	</g>
</g>
</svg>
