<svg height='300px' width='300px'  fill="#FFFFFF" xmlns="http://www.w3.org/2000/svg" xmlns:xlink="http://www.w3.org/1999/xlink" version="1.1" x="0px" y="0px" viewBox="0 0 100 100" style="enable-background:new 0 0 100 100;" xml:space="preserve"><g><path d="M49.4,15c-5.4,0-9.7,4.4-9.7,9.7c0,5.4,4.4,9.7,9.7,9.7c5.4,0,9.7-4.4,9.7-9.7C59.1,19.4,54.7,15,49.4,15z"></path><path d="M64.3,72.2h-4.2c-0.6,0-1-0.5-1-1V41.6c0-0.6-0.5-1-1-1H35.7c-0.6,0-1,0.5-1,1V49c0,0.5,0.4,1,1,1l4.5,0.1c0.5,0,1,0.5,1,1   v20c0,0.6-0.5,1-1,1H36c-0.6,0-1,0.5-1,1V84c0,0.6,0.5,1,1,1h28.2c0.6,0,1-0.5,1-1V73.2C65.3,72.6,64.8,72.2,64.3,72.2z"></path></g></svg>