<?xml version="1.0" encoding="utf-8"?>
<!-- Generator: Adobe Illustrator 24.2.3, SVG Export Plug-In . SVG Version: 6.00 Build 0)  -->
<svg version="1.1" id="Layer_2_1_" xmlns="http://www.w3.org/2000/svg" xmlns:xlink="http://www.w3.org/1999/xlink" x="0px" y="0px"
	 viewBox="0 0 300 300" style="enable-background:new 0 0 300 300;" xml:space="preserve">
<style type="text/css">
	.st0{fill:#FFFFFF;}
</style>
<g>
	<g>
		<path class="st0" d="M52.6,217.5c-0.6,0-1.2-0.1-1.7-0.3c-1.7-0.7-2.8-2.3-2.8-4.2v-41.3H18.2c-2.5,0-4.5-2-4.5-4.5V29.7
			c0-2.5,2-4.5,4.5-4.5h217.7c2.5,0,4.5,2,4.5,4.5v74.5c0,2.5-2,4.5-4.5,4.5s-4.5-2-4.5-4.5v-70H22.7v128.5h29.9
			c2.5,0,4.5,2,4.5,4.5v35L95.3,164c0.8-0.8,2-1.3,3.2-1.3h11.5c2.5,0,4.5,2,4.5,4.5s-2,4.5-4.5,4.5h-9.6l-44.5,44.5
			C54.9,217.1,53.8,217.5,52.6,217.5z"/>
	</g>
	<g>
		<path class="st0" d="M258.8,274.8c-1.1,0-2.2-0.4-3-1.1L205.6,229h-61.3c-2.5,0-4.5-2-4.5-4.5v-91.7c0-2.5,2-4.5,4.5-4.5h137.5
			c2.5,0,4.5,2,4.5,4.5v91.7c0,2.5-2,4.5-4.5,4.5h-18.4v41.3c0,1.8-1,3.4-2.7,4.1C260.1,274.7,259.5,274.8,258.8,274.8z M148.8,220
			h58.5c1.1,0,2.2,0.4,3,1.1l44.1,39.2v-35.8c0-2.5,2-4.5,4.5-4.5h18.4v-82.7H148.8V220z"/>
	</g>
</g>
</svg>
