<?xml version="1.0" encoding="utf-8"?>
<!-- Generator: Adobe Illustrator 24.2.3, SVG Export Plug-In . SVG Version: 6.00 Build 0)  -->
<svg version="1.1" id="Layer_1" xmlns="http://www.w3.org/2000/svg" xmlns:xlink="http://www.w3.org/1999/xlink" x="0px" y="0px"
	 viewBox="0 0 126 40.4" style="enable-background:new 0 0 126 40.4;" xml:space="preserve">
<style type="text/css">
	.st0{fill:#005984;}
	.st1{fill:#54B948;}
	.st2{fill:#26BCD7;}
</style>
<path class="st0" d="M51,6.3h-2.8v12.9h2.7c4.5,0,7.3-2.5,7.3-6.5C58.2,8.8,55.3,6.3,51,6.3z M50.1,8h0.4c2.6,0,5.8,0.8,5.8,4.7
	s-3.1,4.7-5.8,4.7h-0.4V8z M66.9,13.8c0,2.5-0.9,3.8-2.9,3.8s-2.9-1.2-2.9-3.8V6.3h-1.9v8.1c0,3,1.9,5,4.8,5s4.8-2,4.8-5V6.3h-1.9
	V13.8z M74.2,12.1L80,6.3h-2.5l-5.1,5.2V6.3h-1.9v12.9h1.9v-5.3l0.4-0.4l4.7,5.8h2.6L74.2,12.1 M87.8,17.4h-5.2V13h5v-1.8h-5V8h5.2
	V6.3h-7.1v12.9h7.1V17.4 M48.2,35.6h7.1v-1.8h-5.2v-4.4h5v-1.8h-5v-3.2h5.2v-1.8h-7.1V35.6 M69.8,35.6h7.1v-1.8h-5.2v-4.4h5v-1.8h-5
	v-3.2h5.2v-1.8h-7.1V35.6 M69.8,35.6h7.1v-1.8h-5.2v-4.4h5v-1.8h-5v-3.2h5.2v-1.8h-7.1V35.6 M66.2,22.7v9l-8.2-9h-1.2v12.9h1.9v-9.1
	l8.2,9.1h1.2V22.7L66.2,22.7 M85.7,26.5c0-1.3-0.7-2.4-1.7-3.1c-1.1-0.5-2.2-0.7-3.4-0.6h-2v12.8h1.9v-5.3h0.4l3.7,5.3h2.3l-4-5.5
	C84.5,29.8,85.8,28.2,85.7,26.5z M83.9,26.5c0,1.5-1,2.1-3.2,2.1h-0.3v-4.2h0.2C82.9,24.4,83.9,25.1,83.9,26.5L83.9,26.5z M94,30.7
	h3.2c-0.2,1.9-2.2,3.4-3.9,3.4c-2.6-0.1-4.7-2.3-4.7-5c-0.1-2.6,2-4.8,4.6-4.9c1.6,0,3.1,0.7,4,2l0.1,0.2l1.3-1.3l-0.1-0.1
	c-2.3-2.9-6.6-3.3-9.4-1c-2.9,2.3-3.3,6.6-1,9.4c1.2,1.5,3,2.4,5,2.5c3.3,0.1,6-2.6,6.1-5.9v-1.1H94V30.7z M107.2,22.7l-3,5.2
	l-3-5.2h-2.2l4.2,7.3v5.6h1.9V30l4.2-7.3L107.2,22.7 M107.9,33.7c0-1.1,0.9-2,2-2s2,0.9,2,2c0,1.1-0.9,2-2,2
	C108.8,35.7,107.9,34.8,107.9,33.7C107.9,33.8,107.9,33.8,107.9,33.7C107.9,33.8,107.9,33.7,107.9,33.7z M108.2,33.7
	c0,0.9,0.7,1.6,1.6,1.7c0.9,0,1.6-0.7,1.7-1.6c0-0.9-0.7-1.6-1.6-1.7C109,32.1,108.2,32.8,108.2,33.7
	C108.2,33.7,108.2,33.7,108.2,33.7L108.2,33.7z M110.8,34.8h-0.4l-0.6-1h-0.4v1h-0.3v-2.2h0.9c0.4,0,0.8,0.1,0.8,0.6
	c0,0.3-0.2,0.6-0.5,0.6c0,0,0,0,0,0h-0.1L110.8,34.8z M109.4,33v0.6h0.3c0.3,0,0.7,0,0.7-0.2S110.3,33,110,33L109.4,33z M33.4,32.1
	c-0.7,0.8-1.7,1.2-2.7,1.4c-1.6,0.1-3.1-0.9-3.5-4.3l-6.3-1.8c2.7,9.7,10.3,9.4,12.9,5.2c0.2-0.3,0.1-0.4,0-0.5
	C33.7,31.9,33.5,31.9,33.4,32.1z M33.4,6.5c-2.5-5-11.4-0.1-13,12.9c-0.1,0.6,0.2,1.2,0.7,1.5c0.8,0.4,1.7,0.7,2.6,0.8
	c0.7,0.2,1.4,0.2,2.1,0.2c0.6,0,1.2-0.5,1.2-1.1c1.3-14,4.5-17.1,6-14.1C33.1,7.1,33.5,6.9,33.4,6.5L33.4,6.5z"/>
<path class="st1" d="M31.8,10.9c-0.6-0.1-1.3,0.2-1.6,0.7c-0.4,0.7-0.6,1.4-0.7,2.1c-0.2,0.8-0.2,1.5-0.1,2.3
	c0.1,0.4,0.5,0.7,0.9,0.7c2.9,0.2,11.2,1.4,12.4,3.8c0.8,1.7-1.6,2.1-3.3,2.5c-0.6,0.1-1,0.6-1.1,1.1c-0.2,0.9,0,1.8,0.5,2.5
	c0.2,0.4,0.7,0.5,1.1,0.3l0.1-0.1c0.9-0.6,1.7-1.3,2.3-2.1C47.8,17,36.1,11,31.8,10.9z"/>
<path class="st2" d="M34.7,23.7c-14,1.6-25.1-4.9-16.7-6.4c0,0,1.1-0.2,1.3-0.9c0.2-0.6,0.3-0.8,0.5-1.7c0.1-0.6,0.3-0.9,0.4-1.3
	c0.2-0.7-0.2-1.1-1.1-0.6c-7.7,3.7-5.4,10.7,0.8,14.2c4.1,2.4,8.9,3.2,13.6,2.3c0.8-0.1,1.4-0.6,1.9-1.3c0.6-0.9,0.9-2.1,0.8-3.2
	c0-0.6-0.5-1.2-1.1-1.2C34.9,23.7,34.8,23.7,34.7,23.7L34.7,23.7z"/>
</svg>
