<?xml version="1.0" encoding="utf-8"?>
<!-- Generator: Adobe Illustrator 24.2.3, SVG Export Plug-In . SVG Version: 6.00 Build 0)  -->
<svg version="1.1" id="Layer_2_1_" xmlns="http://www.w3.org/2000/svg" xmlns:xlink="http://www.w3.org/1999/xlink" x="0px" y="0px"
	 viewBox="0 0 300 300" style="enable-background:new 0 0 300 300;" xml:space="preserve">
<style type="text/css">
	.st0{fill:#025A85;stroke:#025A85;stroke-width:0.5;stroke-miterlimit:10;}
	.st1{fill:#FFFFFF;}
</style>
<circle class="st0" cx="150" cy="150" r="140.5"/>
<g>
	<path class="st1" d="M83.7,176.5H66.1c-2.4,0-4.4,2-4.4,4.4s2,4.4,4.4,4.4h17.7c2.4,0,4.4-2,4.4-4.4
		C88.2,178.5,86.2,176.5,83.7,176.5z"/>
	<path class="st1" d="M225.2,88.2h-137V70.5h22.1c2.4,0,4.4-2,4.4-4.4V48.4c0-2.4-2-4.4-4.4-4.4H83.7c-2.4,0-4.4,2-4.4,4.4v17.7
		v22.1h-4.4c-17,0-30.9,13.9-30.9,30.9v79.5c0,2.4,2,4.4,4.4,4.4h53h57.4v48.6c0,2.4,2,4.4,4.4,4.4s4.4-2,4.4-4.4V203h83.9
		c2.4,0,4.4-2,4.4-4.4v-79.5C256.1,102,242.2,88.2,225.2,88.2z M97,194.2H52.8v-75.1c0-12.2,9.9-22.1,22.1-22.1S97,106.9,97,119.1
		V194.2z"/>
</g>
</svg>
