<?xml version="1.0" encoding="utf-8"?>
<!-- Generator: Adobe Illustrator 24.1.1, SVG Export Plug-In . SVG Version: 6.00 Build 0)  -->
<svg version="1.1" id="Layer_2" xmlns="http://www.w3.org/2000/svg" xmlns:xlink="http://www.w3.org/1999/xlink" x="0px" y="0px"
	 viewBox="0 0 300 300" style="enable-background:new 0 0 300 300;" xml:space="preserve">
<style type="text/css">
	.st0{fill:#FFFFFF;}
</style>
<g>
	<path class="st0" d="M79.2,178.3H60.4c-2.6,0-4.7,2.1-4.7,4.7c0,2.6,2.1,4.7,4.7,4.7h18.9c2.6,0,4.7-2.1,4.7-4.7
		C84,180.4,81.8,178.3,79.2,178.3z"/>
	<path class="st0" d="M230.2,84H84V65.1h23.6c2.6,0,4.7-2.1,4.7-4.7V41.5c0-2.6-2.1-4.7-4.7-4.7H79.2c-2.6,0-4.7,2.1-4.7,4.7v18.9
		V84h-4.7c-18.2,0-33,14.8-33,33v84.9c0,2.6,2.1,4.7,4.7,4.7h56.6h61.3v51.9c0,2.6,2.1,4.7,4.7,4.7c2.6,0,4.7-2.1,4.7-4.7v-51.9
		h89.6c2.6,0,4.7-2.1,4.7-4.7V117C263.2,98.8,248.4,84,230.2,84z M93.4,197.2H46.2V117c0-13,10.6-23.6,23.6-23.6S93.4,104,93.4,117
		V197.2z"/>
</g>
</svg>
