<svg height='300px' width='300px'  fill="#FFFFFF" xmlns:dc="http://purl.org/dc/elements/1.1/" xmlns:cc="http://creativecommons.org/ns#" xmlns:rdf="http://www.w3.org/1999/02/22-rdf-syntax-ns#" xmlns:svg="http://www.w3.org/2000/svg" xmlns="http://www.w3.org/2000/svg" xmlns:sodipodi="http://sodipodi.sourceforge.net/DTD/sodipodi-0.dtd" xmlns:inkscape="http://www.inkscape.org/namespaces/inkscape" version="1.1" x="0px" y="0px" viewBox="0 0 100 100"><g transform="translate(0,-952.36218)"><path d="m 37.375005,968.46362 -24.000001,8 c -0.7955,0.26175 -1.3776,1.06881 -1.375,1.90625 l 0,56.02093 c 0.016,1.2508 1.4368,2.2659 2.625001,1.875 l 23.375,-7.7812 23.375,7.7812 c 0.4025,0.1325 0.8475,0.1325 1.25,0 l 24,-8 c 0.7856,-0.2584 1.3646,-1.048 1.375,-1.875 l 0,-56.02092 c 0,-1.26116 -1.4269,-2.3002 -2.625,-1.90625 l -23.375,7.78125 -23.375,-7.78125 c -0.4523,-0.17558 -0.9368,-0.0975 -1.25,0 z m -1.375,4.6563 0,51.83348 -20,6.6562 0,-51.83343 z m 4,0 20,6.65625 0,51.83343 -20,-6.6562 z m 44,0 0,51.83348 -20,6.6562 0,-51.83343 z" style="text-indent:0;text-transform:none;direction:ltr;block-progression:tb;baseline-shift:baseline;color:#000000;enable-background:accumulate;" fill="#FFFFFF" fill-opacity="1" stroke="none" marker="none" visibility="visible" display="inline" overflow="visible"></path></g></svg>