<?xml version="1.0" encoding="utf-8"?>
<!-- Generator: Adobe Illustrator 21.1.0, SVG Export Plug-In . SVG Version: 6.00 Build 0)  -->
<svg version="1.1" id="Layer_1" xmlns="http://www.w3.org/2000/svg" xmlns:xlink="http://www.w3.org/1999/xlink" x="0px" y="0px"
	 viewBox="0 0 170.6 266.4" style="enable-background:new 0 0 170.6 266.4;" xml:space="preserve">
<style type="text/css">
	.st0{fill-rule:evenodd;clip-rule:evenodd;fill:#FFFFFF;stroke:#002D62;stroke-width:1.1346;}
	.st1{fill-rule:evenodd;clip-rule:evenodd;fill:#002D62;}
	.st2{fill-rule:evenodd;clip-rule:evenodd;fill:#E7E7E6;}
	.st3{fill:#FFFFFF;}
	.st4{fill-rule:evenodd;clip-rule:evenodd;fill:url(#SVGID_1_);}
	.st5{fill:#002D62;}
</style>
<rect x="33.3" y="6.8" class="st0" width="106.8" height="156.9"/>
<rect x="38.5" y="11.4" class="st1" width="97.2" height="96"/>
<rect x="38.5" y="112.8" class="st2" width="97.2" height="43.6"/>
<g>
	<path class="st3" d="M49,189.4c-0.1-2.6-0.3-5.8-0.3-8.2h-0.1c-0.7,2.2-1.4,4.6-2.4,7.2l-3.3,9.2h-1.9l-3.1-9
		c-0.9-2.7-1.6-5.1-2.2-7.3h-0.1c-0.1,2.4-0.2,5.5-0.4,8.4l-0.5,8.1h-2.3l1.3-18.9H37l3.2,9.1c0.8,2.3,1.4,4.4,1.9,6.4h0.1
		c0.5-1.9,1.2-4,2-6.4l3.4-9.1h3.1l1.2,18.9h-2.4L49,189.4z"/>
	<path class="st3" d="M65.3,194.4c0,1.2,0.1,2.3,0.2,3.3h-2.2L63,196h-0.1c-0.7,1.1-2.2,2-4.2,2c-2.7,0-4.1-1.9-4.1-3.9
		c0-3.3,2.9-5.1,8.2-5v-0.3c0-1.1-0.3-3.2-3.1-3.1c-1.3,0-2.6,0.4-3.6,1l-0.6-1.7c1.1-0.7,2.8-1.2,4.5-1.2c4.2,0,5.2,2.8,5.2,5.6
		V194.4z M62.9,190.7c-2.7-0.1-5.7,0.4-5.7,3.1c0,1.6,1.1,2.4,2.3,2.4c1.8,0,2.9-1.1,3.3-2.3c0.1-0.3,0.1-0.5,0.1-0.8V190.7z"/>
	<path class="st3" d="M69.2,188.3c0-1.6,0-3-0.1-4.2h2.2l0.1,2.7h0.1c0.6-1.8,2.1-3,3.8-3c0.3,0,0.4,0,0.7,0.1v2.3
		c-0.3,0-0.5-0.1-0.9-0.1c-1.7,0-3,1.3-3.3,3.1c-0.1,0.4-0.1,0.8-0.1,1.2v7.2h-2.5L69.2,188.3z"/>
	<path class="st3" d="M80,184.1l2.9,8c0.3,0.9,0.7,2,0.9,2.8h0.1c0.3-0.8,0.5-1.9,0.9-2.8l2.7-8H90l-3.7,9.7c-1.8,4.7-3,7-4.7,8.5
		c-1.2,1-2.4,1.5-3,1.6l-0.6-2.1c0.6-0.2,1.4-0.6,2.2-1.2c0.7-0.5,1.5-1.5,2.1-2.7c0.1-0.3,0.2-0.4,0.2-0.6c0-0.1-0.1-0.3-0.2-0.6
		l-5-12.5H80z"/>
	<path class="st3" d="M92.3,177.8h2.5v19.9h-2.5V177.8z"/>
	<path class="st3" d="M108.4,194.4c0,1.2,0.1,2.3,0.2,3.3h-2.2l-0.2-1.7h-0.1c-0.7,1.1-2.2,2-4.1,2c-2.7,0-4.2-1.9-4.2-3.9
		c0-3.3,2.9-5.1,8.2-5v-0.3c0-1.1-0.3-3.2-3.1-3.1c-1.3,0-2.6,0.4-3.6,1l-0.6-1.7c1.1-0.7,2.8-1.2,4.5-1.2c4.2,0,5.2,2.8,5.2,5.6
		V194.4z M106,190.7c-2.7-0.1-5.7,0.4-5.7,3.1c0,1.6,1.1,2.4,2.3,2.4c1.8,0,2.9-1.1,3.3-2.3c0.1-0.3,0.1-0.5,0.1-0.8V190.7z"/>
	<path class="st3" d="M112.3,187.8c0-1.4,0-2.6-0.1-3.7h2.2l0.1,2.2h0.1c0.7-1.3,2.2-2.5,4.5-2.5c1.9,0,4.8,1.1,4.8,5.8v8.1h-2.5
		v-7.8c0-2.2-0.8-4-3.1-4c-1.6,0-2.9,1.1-3.3,2.5c-0.1,0.3-0.2,0.8-0.2,1.1v8.2h-2.5V187.8z"/>
	<path class="st3" d="M139.6,177.8v16.4c0,1.2,0,2.6,0.1,3.5h-2.2l-0.1-2.4h-0.1c-0.8,1.5-2.4,2.7-4.6,2.7c-3.3,0-5.8-2.8-5.8-6.9
		c0-4.5,2.8-7.3,6.1-7.3c2.1,0,3.5,1,4.1,2h0.1v-8.1H139.6z M137.2,189.6c0-0.3,0-0.7-0.1-1.1c-0.4-1.5-1.7-2.8-3.6-2.8
		c-2.6,0-4.1,2.2-4.1,5.2c0,2.8,1.4,5,4,5c1.7,0,3.2-1.1,3.6-2.9c0.1-0.3,0.1-0.7,0.1-1.1V189.6z"/>
	<path class="st3" d="M5.7,212.1H0v-2.1h14v2.1H8.2V229H5.7V212.1z"/>
	<path class="st3" d="M14.8,219.6c0-1.6,0-3-0.1-4.2h2.2l0.1,2.7H17c0.6-1.8,2.1-3,3.8-3c0.3,0,0.4,0,0.7,0.1v2.3
		c-0.3,0-0.5-0.1-0.9-0.1c-1.7,0-3,1.3-3.3,3.1c-0.1,0.4-0.1,0.8-0.1,1.2v7.2h-2.5L14.8,219.6z"/>
	<path class="st3" d="M33.3,225.7c0,1.2,0.1,2.3,0.2,3.3h-2.2l-0.2-1.7H31c-0.7,1.1-2.2,2-4.2,2c-2.7,0-4.2-1.9-4.2-3.9
		c0-3.3,2.9-5.1,8.2-5V220c0-1.1-0.3-3.2-3.1-3.1c-1.3,0-2.6,0.4-3.6,1l-0.6-1.7c1.1-0.7,2.8-1.2,4.5-1.2c4.2,0,5.2,2.8,5.2,5.6
		V225.7z M30.9,222c-2.7-0.1-5.7,0.4-5.7,3.1c0,1.6,1.1,2.4,2.3,2.4c1.8,0,2.9-1.1,3.3-2.3c0.1-0.3,0.1-0.5,0.1-0.8V222z"/>
	<path class="st3" d="M37.3,219.1c0-1.4,0-2.6-0.1-3.7h2.2l0.1,2.2h0.1c0.7-1.3,2.2-2.5,4.5-2.5c1.9,0,4.8,1.1,4.8,5.8v8.1h-2.5
		v-7.8c0-2.2-0.8-4-3.1-4c-1.6,0-2.9,1.1-3.3,2.5c-0.1,0.3-0.2,0.8-0.2,1.1v8.2h-2.5V219.1z"/>
	<path class="st3" d="M52.5,226.5c0.8,0.4,2,1,3.3,1c1.8,0,2.6-0.9,2.6-2c0-1.2-0.7-1.8-2.5-2.5c-2.5-0.9-3.6-2.2-3.6-3.8
		c0-2.2,1.8-4,4.7-4c1.4,0,2.6,0.4,3.3,0.8l-0.6,1.8c-0.5-0.3-1.5-0.8-2.8-0.8c-1.5,0-2.2,0.8-2.2,1.9c0,1.1,0.8,1.7,2.6,2.3
		c2.3,0.9,3.6,2,3.6,4.1c0,2.4-1.9,4.1-5,4.1c-1.5,0-2.9-0.4-3.8-1L52.5,226.5z"/>
	<path class="st3" d="M63.9,219.8c0-1.7,0-3.1-0.1-4.4H66l0.1,2.3h0.1c1-1.7,2.6-2.6,4.8-2.6c3.3,0,5.8,2.8,5.8,6.9
		c0,4.9-3,7.3-6.2,7.3c-1.8,0-3.4-0.8-4.2-2.1h-0.1v7.4h-2.5V219.8z M66.4,223.4c0,0.3,0,0.7,0.1,1c0.4,1.7,1.9,2.9,3.7,2.9
		c2.6,0,4.1-2.1,4.1-5.2c0-2.7-1.4-5-4-5c-1.7,0-3.3,1.2-3.8,3c-0.1,0.3-0.1,0.7-0.1,1V223.4z"/>
	<path class="st3" d="M85.4,229.3c-3.6,0-6.5-2.7-6.5-7c0-4.5,3-7.2,6.7-7.2c3.9,0,6.5,2.8,6.5,7C92.2,227.1,88.7,229.3,85.4,229.3
		L85.4,229.3z M85.5,227.4c2.4,0,4.1-2.2,4.1-5.3c0-2.3-1.1-5.2-4.1-5.2c-2.9,0-4.1,2.7-4.1,5.3C81.4,225.2,83.1,227.4,85.5,227.4
		L85.5,227.4z"/>
	<path class="st3" d="M95.3,219.6c0-1.6,0-3-0.1-4.2h2.2l0.1,2.7h0.1c0.6-1.8,2.1-3,3.8-3c0.3,0,0.4,0,0.7,0.1v2.3
		c-0.3,0-0.5-0.1-0.9-0.1c-1.7,0-3,1.3-3.3,3.1c-0.1,0.4-0.1,0.8-0.1,1.2v7.2h-2.5L95.3,219.6z"/>
	<path class="st3" d="M108.1,212.1v3.3h3.5v1.9h-3.5v7.3c0,1.7,0.5,2.6,1.9,2.6c0.7,0,1.1-0.1,1.4-0.2l0.1,1.9
		c-0.5,0.2-1.2,0.3-2.2,0.3c-1.2,0-2.1-0.4-2.7-1c-0.7-0.8-1-2-1-3.6v-7.4h-2.1v-1.9h2.1v-2.5L108.1,212.1z"/>
	<path class="st3" d="M124,225.7c0,1.2,0.1,2.3,0.2,3.3H122l-0.2-1.7h-0.1c-0.7,1.1-2.2,2-4.1,2c-2.7,0-4.2-1.9-4.2-3.9
		c0-3.3,2.9-5.1,8.2-5V220c0-1.1-0.3-3.2-3.1-3.1c-1.3,0-2.6,0.4-3.6,1l-0.6-1.7c1.1-0.7,2.8-1.2,4.5-1.2c4.2,0,5.2,2.8,5.2,5.6
		V225.7z M121.6,222c-2.7-0.1-5.7,0.4-5.7,3.1c0,1.6,1.1,2.4,2.3,2.4c1.8,0,2.9-1.1,3.3-2.3c0.1-0.3,0.1-0.5,0.1-0.8V222z"/>
	<path class="st3" d="M130.8,212.1v3.3h3.5v1.9h-3.5v7.3c0,1.7,0.5,2.6,1.9,2.6c0.7,0,1.1-0.1,1.4-0.2l0.1,1.9
		c-0.5,0.2-1.2,0.3-2.2,0.3c-1.2,0-2.1-0.4-2.7-1c-0.7-0.8-1-2-1-3.6v-7.4h-2.1v-1.9h2.1v-2.5L130.8,212.1z"/>
	<path class="st3" d="M138.3,212.9c-0.9,0-1.5-0.7-1.5-1.6c0-0.9,0.6-1.6,1.6-1.6c1,0,1.6,0.7,1.6,1.6
		C139.9,212.2,139.3,212.9,138.3,212.9L138.3,212.9z M137.1,229v-13.6h2.5V229H137.1z"/>
	<path class="st3" d="M149.2,229.3c-3.6,0-6.5-2.7-6.5-7c0-4.5,3-7.2,6.7-7.2c3.9,0,6.5,2.8,6.5,7
		C156,227.1,152.5,229.3,149.2,229.3L149.2,229.3z M149.3,227.4c2.4,0,4.1-2.2,4.1-5.3c0-2.3-1.2-5.2-4.1-5.2
		c-2.9,0-4.2,2.7-4.2,5.3C145.2,225.2,146.9,227.4,149.3,227.4L149.3,227.4z"/>
	<path class="st3" d="M159.1,219.1c0-1.4,0-2.6-0.1-3.7h2.2l0.1,2.2h0.1c0.7-1.3,2.2-2.5,4.5-2.5c1.9,0,4.8,1.1,4.8,5.8v8.1h-2.5
		v-7.8c0-2.2-0.8-4-3.1-4c-1.6,0-2.9,1.1-3.3,2.5c-0.1,0.3-0.2,0.8-0.2,1.1v8.2h-2.5V219.1z"/>
	<path class="st3" d="M38.9,254.3l-2,5.9h-2.5l6.4-18.9h2.9l6.4,18.9h-2.6l-2-5.9H38.9z M45.1,252.4l-1.9-5.4
		c-0.4-1.2-0.7-2.4-1-3.4h-0.1c-0.3,1.1-0.6,2.3-0.9,3.4l-1.9,5.5H45.1z"/>
	<path class="st3" d="M64,256.5c0,1.4,0,2.6,0.1,3.7h-2.2l-0.1-2.2h-0.1c-0.6,1.1-2.1,2.5-4.5,2.5c-2.1,0-4.7-1.2-4.7-5.9v-7.9H55
		v7.5c0,2.6,0.8,4.3,3,4.3c1.7,0,2.8-1.1,3.3-2.3c0.1-0.3,0.2-0.8,0.2-1.3v-8.3H64V256.5z"/>
	<path class="st3" d="M71,243.4v3.3h3.5v1.9H71v7.3c0,1.7,0.5,2.6,1.9,2.6c0.7,0,1.1-0.1,1.4-0.2l0.1,1.9c-0.5,0.2-1.2,0.3-2.2,0.3
		c-1.1,0-2.1-0.4-2.7-1c-0.7-0.8-1-2-1-3.6v-7.4h-2.1v-1.9h2.1v-2.5L71,243.4z"/>
	<path class="st3" d="M77.3,240.3h2.5v8.5h0.1c0.4-0.7,1-1.3,1.8-1.7c0.7-0.4,1.6-0.7,2.5-0.7c1.8,0,4.7,1.1,4.7,5.8v8.1h-2.5v-7.8
		c0-2.2-0.8-4-3.1-4c-1.6,0-2.8,1.1-3.3,2.5c-0.1,0.3-0.2,0.7-0.2,1.2v8.2h-2.5V240.3z"/>
	<path class="st3" d="M98.4,260.6c-3.6,0-6.5-2.7-6.5-7c0-4.5,3-7.2,6.7-7.2c3.9,0,6.5,2.8,6.5,7
		C105.2,258.4,101.7,260.6,98.4,260.6L98.4,260.6z M98.5,258.7c2.4,0,4.1-2.2,4.1-5.3c0-2.3-1.1-5.2-4.1-5.2c-2.9,0-4.1,2.7-4.1,5.3
		C94.4,256.5,96.1,258.7,98.5,258.7L98.5,258.7z"/>
	<path class="st3" d="M108.3,250.9c0-1.6,0-3-0.1-4.2h2.2l0.1,2.7h0.1c0.6-1.8,2.1-3,3.8-3c0.3,0,0.4,0,0.7,0.1v2.3
		c-0.3,0-0.5-0.1-0.9-0.1c-1.7,0-3,1.3-3.3,3.1c-0.1,0.4-0.1,0.8-0.1,1.2v7.2h-2.5L108.3,250.9z"/>
	<path class="st3" d="M118.8,244.2c-0.9,0-1.5-0.7-1.5-1.6c0-0.9,0.6-1.6,1.6-1.6c1,0,1.6,0.7,1.6,1.6
		C120.4,243.4,119.8,244.2,118.8,244.2L118.8,244.2z M117.6,260.2v-13.6h2.5v13.6H117.6z"/>
	<path class="st3" d="M127.1,243.4v3.3h3.5v1.9h-3.5v7.3c0,1.7,0.5,2.6,1.9,2.6c0.7,0,1.1-0.1,1.4-0.2l0.1,1.9
		c-0.5,0.2-1.2,0.3-2.2,0.3c-1.2,0-2.1-0.4-2.7-1c-0.7-0.8-1-2-1-3.6v-7.4h-2.1v-1.9h2.1v-2.5L127.1,243.4z"/>
	<path class="st3" d="M134.6,246.7l2.9,8c0.3,0.9,0.7,2,0.9,2.8h0.1c0.3-0.8,0.5-1.9,0.9-2.8l2.7-8h2.6l-3.7,9.7
		c-1.8,4.7-3,7-4.7,8.5c-1.2,1-2.4,1.5-3,1.6l-0.6-2.1c0.6-0.2,1.4-0.6,2.2-1.2c0.7-0.5,1.5-1.5,2.1-2.7c0.1-0.3,0.2-0.4,0.2-0.6
		c0-0.1-0.1-0.3-0.2-0.6l-5-12.5H134.6z"/>
</g>
<linearGradient id="SVGID_1_" gradientUnits="userSpaceOnUse" x1="100.7622" y1="128.1223" x2="100.7622" y2="0">
	<stop  offset="3.649640e-03" style="stop-color:#C0C2C4"/>
	<stop  offset="0.1022" style="stop-color:#97999B"/>
	<stop  offset="0.2044" style="stop-color:#8B8D90"/>
	<stop  offset="0.3102" style="stop-color:#95979A"/>
	<stop  offset="0.3686" style="stop-color:#A5A8AA"/>
	<stop  offset="0.4562" style="stop-color:#D1D3D4"/>
	<stop  offset="0.5365" style="stop-color:#E9E9EA"/>
	<stop  offset="0.6168" style="stop-color:#C0C2C4"/>
	<stop  offset="0.6861" style="stop-color:#A9ACAE"/>
	<stop  offset="0.7445" style="stop-color:#979A9C"/>
	<stop  offset="0.8869" style="stop-color:#7D7F82"/>
	<stop  offset="1" style="stop-color:#C0C2C4"/>
</linearGradient>
<path class="st4" d="M152.2,91.7c-0.6,12.3-1.2,24-1.9,36.4c-2.5-0.5-5-1.2-7.5-1.9c-17-4.7-33.2-10.5-47.8-17.5
	c-8.3-3.9-16.2-8.6-23.2-14C64.6,89.4,58.3,83.2,54,75.5c-2.3-4.1-4.1-8.6-4.5-13.8c-0.4-5.4,0.6-10.6,3-14.9
	c4.3-7.8,11.8-13.1,20.2-17c8.3-3.8,17.7-6.9,27.8-9.4c7.3-1.9,15.3-3.1,22.4-5.7c2-0.7,5.3-1.9,5.4-3.9c0.1-2.4-4.1-4-5.9-4.8
	c-2.6-1.2-5.1-2-7.8-2.8c2.8-1.1,6.8-2.1,9.8-3.1c0.1,0,0.3-0.1,0.4-0.1c2,0.4,4.2,1.2,6.3,2c3.9,1.4,8.1,2.8,11.3,5.2
	c1.6,1.1,3.9,3,3.6,5.9c-0.1,0.9-0.8,2.1-1.5,2.8c-2,2.2-5.4,3.7-8.6,4.9c-9.7,3.7-21.4,6-31.3,9.2c-6.4,2-13.4,4.7-18.5,8.4
	c-2.7,2-5,4-6.2,7.2c-1.3,3.2-1,6.5,0.5,10.4c2.3,6,7.3,10.8,12.6,14.3C109.1,81.3,129.3,86.7,152.2,91.7z"/>
<g>
	<path class="st3" d="M145.4,83.7c-0.2-0.2-0.6-0.4-0.8-0.4c-0.5,0-0.8,0.3-0.8,0.7c0,0.4,0.3,0.6,0.9,1.1c0.7,0.5,1.1,0.9,1.1,1.6
		c0,0.8-0.7,1.3-1.5,1.3c-0.5,0-1-0.2-1.4-0.5l0.3-0.4c0.3,0.2,0.6,0.4,1.1,0.4c0.5,0,0.9-0.3,0.9-0.8c0-0.6-0.7-1-1.1-1.3
		c-0.4-0.3-0.9-0.6-0.9-1.3c0-0.7,0.6-1.2,1.4-1.2c0.5,0,0.9,0.2,1.2,0.5L145.4,83.7z"/>
	<path class="st3" d="M152.1,87.8h-0.7v-4h0c-0.2,0.6-1.3,2.7-2,4h-0.3c-0.6-1.3-1.6-3.3-1.8-4h0v4h-0.6v-4.9h0.7
		c0.6,1.3,1.3,2.6,1.9,4c0.7-1.4,1.4-2.7,2.1-4h0.6V87.8z"/>
</g>
<g>
	<path class="st5" d="M48,125H55l5.1,16.4h0.1l5.1-16.4h6.9v21.6h-4.2v-17.9h-0.1l-5.8,17.9h-4.2l-5.8-17.9l-0.1,0.1v17.8H48V125z"
		/>
	<path class="st5" d="M75.8,125h5.9c6.6,0,12.5,2.2,12.5,10.8c0,8.6-5.9,10.8-12.5,10.8h-5.9V125z M80.1,143.2h2.4
		c3.6,0,7.1-2.7,7.1-7.4s-3.5-7.4-7.1-7.4h-2.4V143.2z"/>
	<path class="st5" d="M100.5,128.4h-6.2V125h16.7v3.4h-6.2v18.2h-4.3V128.4z"/>
	<path class="st5" d="M116,125h4.9l8.5,21.6h-4.8l-1.9-5H114l-1.9,5h-4.5L116,125z M118.4,129.3L118.4,129.3l-3.2,8.9h6.3
		L118.4,129.3z"/>
</g>
</svg>
