<?xml version="1.0" encoding="utf-8"?>
<!-- Generator: Adobe Illustrator 25.0.0, SVG Export Plug-In . SVG Version: 6.00 Build 0)  -->
<svg version="1.1" id="Layer_2_1_" xmlns="http://www.w3.org/2000/svg" xmlns:xlink="http://www.w3.org/1999/xlink" x="0px" y="0px"
	 viewBox="0 0 300 300" style="enable-background:new 0 0 300 300;" xml:space="preserve">
<g>
	<g>
		<polygon points="125.2,175 155.4,162 138.1,144.8 		"/>
		<path d="M167.3,167.1c-0.4,0.4-0.9,0.8-1.5,1h-0.1l0,0l-47.8,20.5c-0.6,0.3-1.3,0.4-1.9,0.4c-1.3,0-2.5-0.5-3.4-1.4
			c-1.4-1.4-1.8-3.5-1-5.3l20.5-47.8l0,0v-0.1c0.2-0.6,0.6-1.1,1-1.5l85.5-85.5l0,0l0,0l0,0h-174c-2.7,0-4.8,2.2-4.8,4.8v203.1
			c0,2.7,2.2,4.8,4.8,4.8h183.8c2.7,0,4.8-2.2,4.8-4.8V101.1L167.3,167.1z M218.8,250.7L218.8,250.7l-164.5-0.2
			c-2.7,0-4.8-2.2-4.8-4.8V62.1c0-2.7,2.2-4.8,4.8-4.8L180.1,57l0,0c2.7,0,4.8,2.2,4.8,4.8c0,2.7-2.2,4.8-4.8,4.9L59.2,66.9v173.9
			L214,241V139.2c0-2.7,2.2-4.8,4.8-4.8c2.7,0,4.8,2.2,4.8,4.8v106.6C223.6,248.5,221.4,250.7,218.8,250.7z"/>
	</g>
	<polygon points="229,50.8 239.8,39.9 260.2,60.4 249.4,71.3 	"/>
	<polygon points="222.2,57.6 242.8,78.2 164.1,156.9 143.5,136.6 	"/>
</g>
</svg>
