<?xml version="1.0" encoding="utf-8"?>
<!-- Generator: Adobe Illustrator 24.3.0, SVG Export Plug-In . SVG Version: 6.00 Build 0)  -->
<svg version="1.1" id="Layer_1" xmlns="http://www.w3.org/2000/svg" xmlns:xlink="http://www.w3.org/1999/xlink" x="0px" y="0px"
	 viewBox="0 0 300 300" style="enable-background:new 0 0 300 300;" xml:space="preserve">
<style type="text/css">
	.st0{fill:#FFFFFF;}
	.st1{fill:#0F385A;}
	.st2{enable-background:new    ;}
</style>
<g id="Layer_2_1_">
	<g>
		<path class="st0" d="M266,30H35c-2.8,0-5,2.2-5,5v35.1h241V35C271,32.2,268.7,30,266,30z"/>
		<g>
			<path class="st0" d="M30,70.1v125.6c0,2.8,2.2,5,5,5h103.3l-61.7,61.7c-2,2-2,5.1,0,7.1s5.1,2,7.1,0l61.7-61.7V266
				c0,2.8,2.2,5,5,5s5-2.3,5-5v-58.2l61.7,61.7c1,1,2.3,1.5,3.5,1.5s2.6-0.5,3.5-1.5c2-2,2-5.1,0-7.1l-61.7-61.7H266
				c2.8,0,5-2.3,5-5V70.1H30z"/>
		</g>
	</g>
	<g>
		<path class="st1" d="M251.9,189.2H49.1c-4.1,0-7.5-3.4-7.5-7.5v-132c0-4.1,3.4-7.5,7.5-7.5h202.7c4.1,0,7.5,3.4,7.5,7.5v132
			C259.4,185.8,256,189.2,251.9,189.2z M49.1,45.2c-2.5,0-4.5,2-4.5,4.5v132c0,2.5,2,4.5,4.5,4.5h202.7c2.5,0,4.5-2,4.5-4.5v-132
			c0-2.5-2-4.5-4.5-4.5C251.8,45.2,49.1,45.2,49.1,45.2z"/>
	</g>
</g>
<g id="Layer_3">
	<g class="st2">
		<path class="st1" d="M146.6,153v20.5H66.4v-17.4l36.9-38.8c3.3-3.7,5.9-7.1,7.9-10.1c2-3,3.5-5.7,4.4-8.1c0.9-2.4,1.4-4.6,1.4-6.5
			c0-3.3-0.5-6.1-1.5-8.3c-1-2.2-2.4-3.9-4.3-5.1c-1.9-1.2-4.2-1.7-6.9-1.7c-2.7,0-5.1,0.8-7.2,2.4c-2.1,1.6-3.6,3.7-4.8,6.5
			c-1.1,2.7-1.7,5.8-1.7,9.2H64c0-7,1.7-13.5,5.2-19.3c3.4-5.8,8.2-10.5,14.4-14C89.8,58.8,96.9,57,105,57c8.5,0,15.6,1.3,21.3,3.9
			c5.7,2.6,10.1,6.4,13,11.4c2.9,5,4.4,11,4.4,17.9c0,4-0.6,7.8-1.9,11.5s-3.1,7.3-5.4,10.9c-2.4,3.6-5.2,7.3-8.6,11.1
			c-3.4,3.8-7.2,7.8-11.6,12.1L101.3,153H146.6z"/>
		<path class="st1" d="M239.8,105.6v21c0,8.3-1,15.4-2.9,21.5c-1.9,6.1-4.7,11.2-8.2,15.1c-3.6,4-7.8,7-12.7,8.9
			c-4.9,1.9-10.3,2.9-16.2,2.9c-4.7,0-9.2-0.6-13.3-1.9c-4.1-1.2-7.8-3.1-11.1-5.7c-3.3-2.6-6.1-5.7-8.5-9.6
			c-2.4-3.8-4.2-8.4-5.4-13.6c-1.3-5.2-1.9-11.2-1.9-17.8v-21c0-8.3,1-15.5,2.9-21.6c1.9-6.1,4.7-11.1,8.2-15.1
			c3.6-4,7.8-7,12.7-8.9c4.9-1.9,10.3-2.9,16.2-2.9c4.7,0,9.1,0.6,13.2,1.9c4.1,1.2,7.8,3.1,11.1,5.7c3.3,2.6,6.1,5.7,8.5,9.6
			c2.3,3.8,4.1,8.4,5.4,13.6C239.2,93.1,239.8,99,239.8,105.6z M213.2,129.8v-27.6c0-3.7-0.2-6.9-0.6-9.6c-0.4-2.7-1-5-1.7-6.9
			c-0.8-1.9-1.7-3.4-2.8-4.6c-1.1-1.2-2.4-2.1-3.7-2.6c-1.4-0.6-2.9-0.8-4.6-0.8c-2.1,0-4,0.4-5.6,1.3c-1.7,0.9-3.1,2.2-4.2,4.1
			c-1.2,1.9-2,4.4-2.6,7.6c-0.6,3.2-0.9,7-0.9,11.6v27.6c0,3.7,0.2,7,0.6,9.7c0.4,2.8,1,5.1,1.7,7c0.8,1.9,1.7,3.5,2.8,4.7
			c1.1,1.2,2.4,2,3.8,2.6c1.4,0.5,3,0.8,4.7,0.8c2.1,0,3.9-0.4,5.5-1.3c1.6-0.8,3-2.2,4.2-4.1c1.2-1.9,2.1-4.5,2.7-7.7
			C212.9,138.4,213.2,134.5,213.2,129.8z"/>
	</g>
</g>
</svg>
