<?xml version="1.0" encoding="utf-8"?>
<!-- Generator: Adobe Illustrator 24.1.1, SVG Export Plug-In . SVG Version: 6.00 Build 0)  -->
<svg version="1.1" id="Layer_2_1_" xmlns="http://www.w3.org/2000/svg" xmlns:xlink="http://www.w3.org/1999/xlink" x="0px" y="0px"
	 viewBox="0 0 300 300" style="enable-background:new 0 0 300 300;" xml:space="preserve">
<style type="text/css">
	.st0{fill:#FFFFFF;}
	.st1{enable-background:new    ;}
	.st2{fill:#0F385A;}
</style>
<g>
	<path class="st0" d="M266,30H35c-2.8,0-5,2.2-5,5v35.1h241V35C271,32.2,268.7,30,266,30z"/>
	<g>
		<path class="st0" d="M30,70.1v125.6c0,2.8,2.2,5,5,5h103.3l-61.7,61.7c-2,2-2,5.1,0,7.1s5.1,2,7.1,0l61.7-61.7V266
			c0,2.8,2.2,5,5,5s5-2.3,5-5v-58.2l61.7,61.7c1,1,2.3,1.5,3.5,1.5s2.6-0.5,3.5-1.5c2-2,2-5.1,0-7.1l-61.7-61.7H266c2.8,0,5-2.3,5-5
			V70.1H30z"/>
	</g>
</g>
<g class="st1">
	<path class="st2" d="M170.1,56v21.2h-1.2c-10.1,0-18.3,2.4-24.8,7.2c-6.5,4.8-10.4,11.5-11.9,20.1c6.1-6,13.7-8.9,23-8.9
		c10.1,0,18.1,3.7,24,11c6,7.3,8.9,17,8.9,28.9c0,7.4-1.7,14.2-5.2,20.4c-3.5,6.2-8.4,11-14.6,14.5c-6.3,3.5-13.2,5.2-20.8,5.2
		c-8.2,0-15.6-1.9-22.1-5.6c-6.5-3.8-11.5-9.1-15.2-16.1c-3.6-7-5.5-15-5.6-24.1v-10.8c0-12,2.6-22.7,7.7-32.3
		c5.1-9.6,12.5-17,22-22.5c9.5-5.4,20.1-8.1,31.7-8.1H170.1z M145.9,116.1c-3.6,0-6.5,0.8-8.9,2.5c-2.4,1.6-4.2,3.7-5.3,6.1v8.1
		c0,14.7,5.1,22,15.2,22c4.1,0,7.5-1.8,10.3-5.5c2.7-3.7,4.1-8.3,4.1-13.8c0-5.7-1.4-10.3-4.2-13.9S150.5,116.1,145.9,116.1z"/>
</g>
<g>
	<path class="st2" d="M251.9,189.2H49.1c-4.1,0-7.5-3.4-7.5-7.5v-132c0-4.1,3.4-7.5,7.5-7.5h202.7c4.1,0,7.5,3.4,7.5,7.5v132
		C259.4,185.8,256,189.2,251.9,189.2z M49.1,45.2c-2.5,0-4.5,2-4.5,4.5v132c0,2.5,2,4.5,4.5,4.5h202.7c2.5,0,4.5-2,4.5-4.5v-132
		c0-2.5-2-4.5-4.5-4.5C251.8,45.2,49.1,45.2,49.1,45.2z"/>
</g>
</svg>
