<?xml version="1.0" encoding="utf-8"?>
<!-- Generator: Adobe Illustrator 24.1.1, SVG Export Plug-In . SVG Version: 6.00 Build 0)  -->
<svg version="1.1" id="Layer_2_1_" xmlns="http://www.w3.org/2000/svg" xmlns:xlink="http://www.w3.org/1999/xlink" x="0px" y="0px"
	 viewBox="0 0 300 300" style="enable-background:new 0 0 300 300;" xml:space="preserve">
<style type="text/css">
	.st0{fill:#FFFFFF;}
	.st1{enable-background:new    ;}
	.st2{fill:#0F385A;}
</style>
<g>
	<path class="st0" d="M266,30H35c-2.8,0-5,2.2-5,5v35.1h241V35C271,32.2,268.7,30,266,30z"/>
	<g>
		<path class="st0" d="M30,70.1v125.6c0,2.8,2.2,5,5,5h103.3l-61.7,61.7c-2,2-2,5.1,0,7.1s5.1,2,7.1,0l61.7-61.7V266
			c0,2.8,2.2,5,5,5s5-2.3,5-5v-58.2l61.7,61.7c1,1,2.3,1.5,3.5,1.5s2.6-0.5,3.5-1.5c2-2,2-5.1,0-7.1l-61.7-61.7H266c2.8,0,5-2.3,5-5
			V70.1H30z"/>
	</g>
</g>
<g class="st1">
	<path class="st2" d="M106.7,117.1l7.1-59.5h67.9v20.9h-46.1l-2.6,23.1c1.9-1.1,4.4-2.1,7.5-3s6.2-1.3,9.1-1.3
		c11.5,0,20.4,3.4,26.6,10.3c6.2,6.8,9.3,16.4,9.3,28.8c0,7.5-1.7,14.2-5,20.2c-3.3,6-8,10.7-14,13.9c-6,3.2-13.1,4.9-21.3,4.9
		c-7.3,0-14.1-1.5-20.5-4.5c-6.4-3-11.4-7.1-15-12.4c-3.6-5.2-5.4-11.2-5.3-17.7h27c0.3,4.2,1.6,7.6,4.1,10.1
		c2.4,2.5,5.7,3.7,9.7,3.7c9,0,13.6-6.7,13.6-20.1c0-12.4-5.5-18.6-16.6-18.6c-6.3,0-11,2-14,6.1L106.7,117.1z"/>
</g>
<g>
	<path class="st2" d="M251.9,189.2H49.1c-4.1,0-7.5-3.4-7.5-7.5v-132c0-4.1,3.4-7.5,7.5-7.5h202.7c4.1,0,7.5,3.4,7.5,7.5v132
		C259.4,185.8,256,189.2,251.9,189.2z M49.1,45.2c-2.5,0-4.5,2-4.5,4.5v132c0,2.5,2,4.5,4.5,4.5h202.7c2.5,0,4.5-2,4.5-4.5v-132
		c0-2.5-2-4.5-4.5-4.5C251.8,45.2,49.1,45.2,49.1,45.2z"/>
</g>
</svg>
