<?xml version="1.0" encoding="utf-8"?>
<!-- Generator: Adobe Illustrator 24.2.1, SVG Export Plug-In . SVG Version: 6.00 Build 0)  -->
<svg version="1.1" id="Layer_2_1_" xmlns="http://www.w3.org/2000/svg" xmlns:xlink="http://www.w3.org/1999/xlink" x="0px" y="0px"
	 viewBox="0 0 300 300" style="enable-background:new 0 0 300 300;" xml:space="preserve">
<style type="text/css">
	.st0{fill:#FFFFFF;}
	.st1{fill:#0F385A;}
</style>
<g>
	<path class="st0" d="M266,30H35c-2.8,0-5,2.2-5,5v35.1h241V35C271,32.2,268.7,30,266,30z"/>
	<g>
		<path class="st0" d="M30,70.1v125.6c0,2.8,2.2,5,5,5h103.3l-61.7,61.7c-2,2-2,5.1,0,7.1s5.1,2,7.1,0l61.7-61.7V266
			c0,2.8,2.2,5,5,5s5-2.3,5-5v-58.2l61.7,61.7c1,1,2.3,1.5,3.5,1.5s2.6-0.5,3.5-1.5c2-2,2-5.1,0-7.1l-61.7-61.7H266c2.8,0,5-2.3,5-5
			V70.1H30z"/>
	</g>
</g>
<g>
	<path class="st1" d="M251.9,189.2H49.1c-4.1,0-7.5-3.4-7.5-7.5v-132c0-4.1,3.4-7.5,7.5-7.5h202.7c4.1,0,7.5,3.4,7.5,7.5v132
		C259.4,185.8,256,189.2,251.9,189.2z M49.1,45.2c-2.5,0-4.5,2-4.5,4.5v132c0,2.5,2,4.5,4.5,4.5h202.7c2.5,0,4.5-2,4.5-4.5v-132
		c0-2.5-2-4.5-4.5-4.5C251.8,45.2,49.1,45.2,49.1,45.2z"/>
</g>
<g>
	<path class="st1" d="M118.5,173.5H91.3V86.8l-26.7,7.8V74L116,56.2h2.5V173.5z"/>
	<path class="st1" d="M178.7,103.5h12.8c10.1,0,15.2-5,15.2-14.9c0-3.9-1.2-7-3.6-9.5c-2.4-2.4-5.8-3.7-10.2-3.7
		c-3.6,0-6.7,1-9.4,3.1c-2.7,2.1-4,4.7-4,7.8h-27.1c0-6.2,1.7-11.7,5.2-16.5c3.4-4.8,8.2-8.6,14.3-11.3c6.1-2.7,12.8-4.1,20.1-4.1
		c13,0,23.3,3,30.8,8.9c7.5,6,11.2,14.1,11.2,24.6c0,5-1.5,9.8-4.6,14.3c-3.1,4.5-7.6,8.1-13.5,10.9c6.2,2.3,11.1,5.7,14.7,10.3
		c3.5,4.6,5.3,10.3,5.3,17c0,10.5-4,18.8-12.1,25.1s-18.6,9.4-31.7,9.4c-7.7,0-14.8-1.5-21.4-4.4c-6.6-2.9-11.6-7-14.9-12.2
		c-3.4-5.2-5.1-11.1-5.1-17.7h27.3c0,3.6,1.4,6.7,4.3,9.3c2.9,2.6,6.5,3.9,10.7,3.9c4.8,0,8.6-1.3,11.4-4c2.8-2.7,4.3-6.1,4.3-10.2
		c0-5.9-1.5-10.1-4.4-12.6c-3-2.5-7-3.7-12.2-3.7h-13.2V103.5z"/>
</g>
</svg>
