<?xml version="1.0" encoding="utf-8"?>
<!-- Generator: Adobe Illustrator 24.2.3, SVG Export Plug-In . SVG Version: 6.00 Build 0)  -->
<svg version="1.1" xmlns="http://www.w3.org/2000/svg" xmlns:xlink="http://www.w3.org/1999/xlink" x="0px" y="0px"
	 viewBox="0 0 300 300" style="enable-background:new 0 0 300 300;" xml:space="preserve">
<style type="text/css">
	.st0{fill:#0F385A;}
	.st1{fill:#FFFFFF;}
</style>
<g id="Layer_3">
	<circle class="st0" cx="150" cy="150" r="145.7"/>
</g>
<g id="Layer_2_1_">
	<g>
		<path class="st1" d="M242,62H59c-2.2,0-4,1.7-4,4v27.8h191V66C246,63.7,244.2,62,242,62z"/>
		<g>
			<path class="st1" d="M55,93.8v99.5c0,2.2,1.7,4,4,4h81.9l-48.9,48.9c-1.6,1.6-1.6,4,0,5.6s4,1.6,5.6,0l48.9-48.9V249
				c0,2.2,1.7,4,4,4c2.2,0,4-1.8,4-4v-46.1l48.9,48.9c0.8,0.8,1.8,1.2,2.8,1.2s2.1-0.4,2.8-1.2c1.6-1.6,1.6-4,0-5.6l-48.9-48.9H242
				c2.2,0,4-1.8,4-4V93.8H55z"/>
		</g>
	</g>
	<g>
		<path class="st0" d="M230.9,188.2H70.1c-3.2,0-5.9-2.7-5.9-5.9V77.6c0-3.2,2.7-5.9,5.9-5.9h160.6c3.2,0,5.9,2.7,5.9,5.9v104.6
			C236.8,185.5,234.1,188.2,230.9,188.2z M70.1,74c-2,0-3.6,1.6-3.6,3.6v104.6c0,2,1.6,3.6,3.6,3.6h160.6c2,0,3.6-1.6,3.6-3.6V77.6
			c0-2-1.6-3.6-3.6-3.6C230.8,74,70.1,74,70.1,74z"/>
	</g>
</g>
</svg>
