<?xml version="1.0" encoding="utf-8"?>
<!-- Generator: Adobe Illustrator 24.1.2, SVG Export Plug-In . SVG Version: 6.00 Build 0)  -->
<svg version="1.1" id="Layer_2_1_" xmlns="http://www.w3.org/2000/svg" xmlns:xlink="http://www.w3.org/1999/xlink" x="0px" y="0px"
	 viewBox="0 0 300 300" style="enable-background:new 0 0 300 300;" xml:space="preserve">
<style type="text/css">
	.st0{fill:#FFFFFF;}
	.st1{fill:#0F385A;}
</style>
<g>
	<path class="st0" d="M266,30H35c-2.8,0-5,2.2-5,5v35.1h241V35C271,32.2,268.7,30,266,30z"/>
	<g>
		<path class="st0" d="M30,70.1v125.6c0,2.8,2.2,5,5,5h103.3l-61.7,61.7c-2,2-2,5.1,0,7.1s5.1,2,7.1,0l61.7-61.7V266
			c0,2.8,2.2,5,5,5s5-2.3,5-5v-58.2l61.7,61.7c1,1,2.3,1.5,3.5,1.5s2.6-0.5,3.5-1.5c2-2,2-5.1,0-7.1l-61.7-61.7H266c2.8,0,5-2.3,5-5
			V70.1H30z"/>
	</g>
</g>
<g>
	<path class="st1" d="M251.9,189.2H49.1c-4.1,0-7.5-3.4-7.5-7.5v-132c0-4.1,3.4-7.5,7.5-7.5h202.7c4.1,0,7.5,3.4,7.5,7.5v132
		C259.4,185.8,256,189.2,251.9,189.2z M49.1,45.2c-2.5,0-4.5,2-4.5,4.5v132c0,2.5,2,4.5,4.5,4.5h202.7c2.5,0,4.5-2,4.5-4.5v-132
		c0-2.5-2-4.5-4.5-4.5C251.8,45.2,49.1,45.2,49.1,45.2z"/>
</g>
<g>
	<path class="st1" d="M118.1,173.3H91v-86L64.5,95V74.6l51.1-17.7h2.5V173.3z"/>
	<path class="st1" d="M206.3,128.3c-5.8,5.2-12.3,7.8-19.5,7.8c-10.6,0-18.9-3.6-25.1-10.7c-6.2-7.1-9.3-16.7-9.3-28.6
		c0-7.5,1.7-14.4,5.2-20.8c3.5-6.4,8.3-11.5,14.6-15.2c6.3-3.7,13.2-5.6,20.7-5.6c7.7,0,14.6,1.9,20.8,5.8c6.2,3.9,11,9.3,14.5,16.4
		c3.5,7.1,5.2,15.2,5.4,24.4v10.3c0,12.8-2.5,24-7.6,33.4c-5,9.4-12.2,16.7-21.5,21.7c-9.3,5.1-20.2,7.6-32.6,7.6h-1.7v-21.6
		l5.1-0.1C193.9,152.3,204.2,144,206.3,128.3z M194,116.7c5.9,0,10.1-2.5,12.6-7.6V97.9c0-7.5-1.3-13-3.8-16.5
		c-2.5-3.6-5.9-5.4-10.2-5.4c-3.8,0-7,2-9.5,6.1c-2.6,4.1-3.8,9-3.8,14.7c0,6.1,1.3,10.9,3.9,14.5
		C185.9,114.9,189.5,116.7,194,116.7z"/>
</g>
</svg>
