<?xml version="1.0" encoding="utf-8"?>
<!-- Generator: Adobe Illustrator 24.1.1, SVG Export Plug-In . SVG Version: 6.00 Build 0)  -->
<svg version="1.1" id="Layer_2_1_" xmlns="http://www.w3.org/2000/svg" xmlns:xlink="http://www.w3.org/1999/xlink" x="0px" y="0px"
	 viewBox="0 0 300 300" style="enable-background:new 0 0 300 300;" xml:space="preserve">
<style type="text/css">
	.st0{fill:#FFFFFF;}
	.st1{enable-background:new    ;}
	.st2{fill:#0F385A;}
</style>
<g>
	<path class="st0" d="M266,30H35c-2.8,0-5,2.2-5,5v35.1h241V35C271,32.2,268.7,30,266,30z"/>
	<g>
		<path class="st0" d="M30,70.1v125.6c0,2.8,2.2,5,5,5h103.3l-61.7,61.7c-2,2-2,5.1,0,7.1s5.1,2,7.1,0l61.7-61.7V266
			c0,2.8,2.2,5,5,5s5-2.3,5-5v-58.2l61.7,61.7c1,1,2.3,1.5,3.5,1.5s2.6-0.5,3.5-1.5c2-2,2-5.1,0-7.1l-61.7-61.7H266c2.8,0,5-2.3,5-5
			V70.1H30z"/>
	</g>
</g>
<g class="st1">
	<path class="st2" d="M117.4,173.8h-27V88L64,95.7V75.3l51-17.6h2.5V173.8z"/>
	<path class="st2" d="M233.2,126.4c0,15.7-3.5,27.8-10.6,36.3c-7.1,8.5-17,12.8-29.8,12.8c-12.9,0-22.9-4.3-30-12.9
		c-7.1-8.6-10.6-20.6-10.6-36.2v-21.2c0-15.7,3.5-27.8,10.6-36.3c7-8.5,17-12.8,29.9-12.8c12.9,0,22.9,4.3,29.9,12.9
		c7.1,8.6,10.6,20.7,10.6,36.3V126.4z M206.3,101.7c0-8.4-1.1-14.6-3.3-18.7s-5.6-6.2-10.4-6.2c-4.6,0-8,1.9-10.1,5.7
		c-2.1,3.8-3.2,9.6-3.4,17.4v29.7c0,8.7,1.1,15,3.3,19c2.2,4,5.6,6,10.4,6c4.6,0,8-2,10.1-5.9c2.2-3.9,3.3-10,3.4-18.4V101.7z"/>
</g>
<g>
	<path class="st2" d="M251.9,189.2H49.1c-4.1,0-7.5-3.4-7.5-7.5v-132c0-4.1,3.4-7.5,7.5-7.5h202.7c4.1,0,7.5,3.4,7.5,7.5v132
		C259.4,185.8,256,189.2,251.9,189.2z M49.1,45.2c-2.5,0-4.5,2-4.5,4.5v132c0,2.5,2,4.5,4.5,4.5h202.7c2.5,0,4.5-2,4.5-4.5v-132
		c0-2.5-2-4.5-4.5-4.5C251.8,45.2,49.1,45.2,49.1,45.2z"/>
</g>
</svg>
