<?xml version="1.0" encoding="utf-8"?>
<!-- Generator: Adobe Illustrator 24.1.2, SVG Export Plug-In . SVG Version: 6.00 Build 0)  -->
<svg version="1.1" id="Layer_2_1_" xmlns="http://www.w3.org/2000/svg" xmlns:xlink="http://www.w3.org/1999/xlink" x="0px" y="0px"
	 viewBox="0 0 300 300" style="enable-background:new 0 0 300 300;" xml:space="preserve">
<style type="text/css">
	.st0{fill:#FFFFFF;}
	.st1{fill:#0F385A;}
	.st2{enable-background:new    ;}
</style>
<g>
	<path class="st0" d="M266,30H35c-2.8,0-5,2.2-5,5v35.1h241V35C271,32.2,268.7,30,266,30z"/>
	<g>
		<path class="st0" d="M30,70.1v125.6c0,2.8,2.2,5,5,5h103.3l-61.7,61.7c-2,2-2,5.1,0,7.1s5.1,2,7.1,0l61.7-61.7V266
			c0,2.8,2.2,5,5,5s5-2.3,5-5v-58.2l61.7,61.7c1,1,2.3,1.5,3.5,1.5s2.6-0.5,3.5-1.5c2-2,2-5.1,0-7.1l-61.7-61.7H266c2.8,0,5-2.3,5-5
			V70.1H30z"/>
	</g>
</g>
<g>
	<path class="st1" d="M251.9,189.2H49.1c-4.1,0-7.5-3.4-7.5-7.5v-132c0-4.1,3.4-7.5,7.5-7.5h202.7c4.1,0,7.5,3.4,7.5,7.5v132
		C259.4,185.8,256,189.2,251.9,189.2z M49.1,45.2c-2.5,0-4.5,2-4.5,4.5v132c0,2.5,2,4.5,4.5,4.5h202.7c2.5,0,4.5-2,4.5-4.5v-132
		c0-2.5-2-4.5-4.5-4.5C251.8,45.2,49.1,45.2,49.1,45.2z"/>
</g>
<g class="st2">
	<path class="st1" d="M118.1,173.3H91v-86L64.5,95V74.6l51.1-17.7h2.5V173.3z"/>
	<path class="st1" d="M234.1,71.3l-43.5,102h-28.5l43.6-95.6h-55.5V56.9h83.9V71.3z"/>
</g>
</svg>
