<?xml version="1.0" encoding="utf-8"?>
<!-- Generator: Adobe Illustrator 24.1.1, SVG Export Plug-In . SVG Version: 6.00 Build 0)  -->
<svg version="1.1" id="Layer_2_1_" xmlns="http://www.w3.org/2000/svg" xmlns:xlink="http://www.w3.org/1999/xlink" x="0px" y="0px"
	 viewBox="0 0 300 300" style="enable-background:new 0 0 300 300;" xml:space="preserve">
<style type="text/css">
	.st0{fill:#FFFFFF;}
	.st1{enable-background:new    ;}
	.st2{fill:#0F385A;}
</style>
<g>
	<path class="st0" d="M266,30H35c-2.8,0-5,2.2-5,5v35.1h241V35C271,32.2,268.7,30,266,30z"/>
	<g>
		<path class="st0" d="M30,70.1v125.6c0,2.8,2.2,5,5,5h103.3l-61.7,61.7c-2,2-2,5.1,0,7.1s5.1,2,7.1,0l61.7-61.7V266
			c0,2.8,2.2,5,5,5s5-2.3,5-5v-58.2l61.7,61.7c1,1,2.3,1.5,3.5,1.5s2.6-0.5,3.5-1.5c2-2,2-5.1,0-7.1l-61.7-61.7H266c2.8,0,5-2.3,5-5
			V70.1H30z"/>
	</g>
</g>
<g class="st1">
	<path class="st2" d="M129.7,104.5h12.7c10.1,0,15.1-4.9,15.1-14.8c0-3.8-1.2-7-3.6-9.4c-2.4-2.4-5.8-3.6-10.1-3.6
		c-3.6,0-6.7,1-9.3,3.1s-4,4.7-4,7.7h-26.9c0-6.1,1.7-11.6,5.1-16.4c3.4-4.8,8.1-8.5,14.2-11.2c6-2.7,12.7-4,19.9-4
		c12.9,0,23.1,3,30.5,8.9c7.4,5.9,11.1,14,11.1,24.3c0,5-1.5,9.7-4.6,14.2c-3.1,4.4-7.5,8-13.4,10.8c6.2,2.2,11,5.6,14.5,10.2
		c3.5,4.5,5.3,10.2,5.3,16.9c0,10.4-4,18.7-12,24.9c-8,6.2-18.5,9.3-31.5,9.3c-7.6,0-14.7-1.5-21.2-4.4c-6.5-2.9-11.5-6.9-14.8-12.1
		c-3.4-5.1-5-11-5-17.5h27.1c0,3.6,1.4,6.7,4.3,9.3c2.9,2.6,6.4,3.9,10.6,3.9c4.7,0,8.5-1.3,11.3-4c2.8-2.6,4.2-6,4.2-10.1
		c0-5.9-1.5-10-4.4-12.5c-2.9-2.4-7-3.7-12.1-3.7h-13.1V104.5z"/>
</g>
<g>
	<path class="st2" d="M251.9,189.2H49.1c-4.1,0-7.5-3.4-7.5-7.5v-132c0-4.1,3.4-7.5,7.5-7.5h202.7c4.1,0,7.5,3.4,7.5,7.5v132
		C259.4,185.8,256,189.2,251.9,189.2z M49.1,45.2c-2.5,0-4.5,2-4.5,4.5v132c0,2.5,2,4.5,4.5,4.5h202.7c2.5,0,4.5-2,4.5-4.5v-132
		c0-2.5-2-4.5-4.5-4.5C251.8,45.2,49.1,45.2,49.1,45.2z"/>
</g>
</svg>
