<?xml version="1.0" encoding="utf-8"?>
<!-- Generator: Adobe Illustrator 24.1.1, SVG Export Plug-In . SVG Version: 6.00 Build 0)  -->
<svg version="1.1" id="Layer_2" xmlns="http://www.w3.org/2000/svg" xmlns:xlink="http://www.w3.org/1999/xlink" x="0px" y="0px"
	 viewBox="0 0 300 300" style="enable-background:new 0 0 300 300;" xml:space="preserve">
<style type="text/css">
	.st0{fill:#FFFFFF;}
</style>
<g>
	<path class="st0" d="M266,30H35c-2.8,0-5,2.2-5,5v35.1h241V35C271,32.2,268.7,30,266,30z"/>
	<g>
		<path class="st0" d="M30,80.2v115.5c0,2.8,2.2,5,5,5h103.3l-61.7,61.7c-2,2-2,5.1,0,7.1s5.1,2,7.1,0l61.7-61.7v58.2
			c0,2.8,2.2,5,5,5s5-2.3,5-5v-58.2l61.7,61.7c1,1,2.3,1.5,3.5,1.5s2.6-0.5,3.5-1.5c2-2,2-5.1,0-7.1l-61.7-61.7H266c2.8,0,5-2.3,5-5
			V80.2H30z M201.6,191.6c-0.8,0.8-1.9,1.2-3,1.2c-1.1,0-2.2-0.4-3-1.2L163,159c-6.5,5.2-14.8,8.4-23.8,8.4
			c-21.1,0-38.2-17.1-38.2-38.2c0-21.1,17.1-38.2,38.2-38.2s38.2,17.1,38.2,38.2c0,9-3.1,17.3-8.4,23.8l32.6,32.6
			C203.2,187.2,203.2,189.9,201.6,191.6z"/>
		<circle class="st0" cx="139.2" cy="129.2" r="29.7"/>
	</g>
</g>
</svg>
