<?xml version="1.0" encoding="utf-8"?>
<!-- Generator: Adobe Illustrator 24.1.2, SVG Export Plug-In . SVG Version: 6.00 Build 0)  -->
<svg version="1.1" id="Layer_2_1_" xmlns="http://www.w3.org/2000/svg" xmlns:xlink="http://www.w3.org/1999/xlink" x="0px" y="0px"
	 viewBox="0 0 300 300" style="enable-background:new 0 0 300 300;" xml:space="preserve">
<style type="text/css">
	.st0{fill:#FFFFFF;}
	.st1{fill:#0F385A;}
	.st2{enable-background:new    ;}
</style>
<g>
	<path class="st0" d="M266,30H35c-2.8,0-5,2.2-5,5v35.1h241V35C271,32.2,268.7,30,266,30z"/>
	<g>
		<path class="st0" d="M30,70.1v125.6c0,2.8,2.2,5,5,5h103.3l-61.7,61.7c-2,2-2,5.1,0,7.1s5.1,2,7.1,0l61.7-61.7V266
			c0,2.8,2.2,5,5,5s5-2.3,5-5v-58.2l61.7,61.7c1,1,2.3,1.5,3.5,1.5s2.6-0.5,3.5-1.5c2-2,2-5.1,0-7.1l-61.7-61.7H266c2.8,0,5-2.3,5-5
			V70.1H30z"/>
	</g>
</g>
<g>
	<path class="st1" d="M251.9,189.2H49.1c-4.1,0-7.5-3.4-7.5-7.5v-132c0-4.1,3.4-7.5,7.5-7.5h202.7c4.1,0,7.5,3.4,7.5,7.5v132
		C259.4,185.8,256,189.2,251.9,189.2z M49.1,45.2c-2.5,0-4.5,2-4.5,4.5v132c0,2.5,2,4.5,4.5,4.5h202.7c2.5,0,4.5-2,4.5-4.5v-132
		c0-2.5-2-4.5-4.5-4.5C251.8,45.2,49.1,45.2,49.1,45.2z"/>
</g>
<g class="st2">
	<path class="st1" d="M118.1,173.3H91v-86L64.5,95V74.6l51.1-17.7h2.5V173.3z"/>
	<path class="st1" d="M218.2,55.2v21.2H217c-10.1,0-18.3,2.4-24.8,7.2c-6.5,4.8-10.5,11.5-12,20.1c6.1-6,13.8-9,23-9
		c10.1,0,18.1,3.7,24.1,11c6,7.4,9,17,9,28.9c0,7.4-1.7,14.2-5.2,20.4c-3.5,6.2-8.4,11-14.6,14.5c-6.3,3.5-13.2,5.2-20.8,5.2
		c-8.3,0-15.6-1.9-22.1-5.6c-6.5-3.8-11.6-9.1-15.2-16.1c-3.6-7-5.5-15-5.6-24.1v-10.8c0-12,2.6-22.8,7.7-32.3
		c5.1-9.6,12.5-17.1,22-22.5c9.5-5.4,20.1-8.2,31.7-8.2H218.2z M193.9,115.4c-3.6,0-6.6,0.8-9,2.5c-2.4,1.7-4.2,3.7-5.4,6.1v8.1
		c0,14.7,5.1,22.1,15.3,22.1c4.1,0,7.5-1.8,10.3-5.5c2.7-3.7,4.1-8.3,4.1-13.8c0-5.7-1.4-10.4-4.2-14
		C202.3,117.2,198.6,115.4,193.9,115.4z"/>
</g>
</svg>
