<?xml version="1.0" encoding="utf-8"?>
<!-- Generator: Adobe Illustrator 24.1.1, SVG Export Plug-In . SVG Version: 6.00 Build 0)  -->
<svg version="1.1" id="Layer_2_1_" xmlns="http://www.w3.org/2000/svg" xmlns:xlink="http://www.w3.org/1999/xlink" x="0px" y="0px"
	 viewBox="0 0 300 300" style="enable-background:new 0 0 300 300;" xml:space="preserve">
<style type="text/css">
	.st0{fill:#FFFFFF;}
	.st1{enable-background:new    ;}
	.st2{fill:#0F385A;}
</style>
<g>
	<path class="st0" d="M266,30H35c-2.8,0-5,2.2-5,5v35.1h241V35C271,32.2,268.7,30,266,30z"/>
	<g>
		<path class="st0" d="M30,70.1v125.6c0,2.8,2.2,5,5,5h103.3l-61.7,61.7c-2,2-2,5.1,0,7.1s5.1,2,7.1,0l61.7-61.7V266
			c0,2.8,2.2,5,5,5s5-2.3,5-5v-58.2l61.7,61.7c1,1,2.3,1.5,3.5,1.5s2.6-0.5,3.5-1.5c2-2,2-5.1,0-7.1l-61.7-61.7H266c2.8,0,5-2.3,5-5
			V70.1H30z"/>
	</g>
</g>
<g class="st1">
	<path class="st2" d="M183.5,88.7c0,5.6-1.4,10.6-4.2,14.9c-2.8,4.3-6.6,7.8-11.5,10.4c5.5,2.7,9.9,6.4,13.2,11.1
		c3.2,4.7,4.9,10.3,4.9,16.7c0,10.4-3.6,18.6-10.7,24.6c-7.2,6-17,9-29.6,9c-12.6,0-22.6-3-29.9-9.1c-7.3-6-10.9-14.2-10.9-24.5
		c0-6.2,1.6-11.7,4.8-16.5c3.2-4.8,7.7-8.6,13.6-11.3c-4.9-2.6-8.8-6.1-11.7-10.4c-2.8-4.3-4.2-9.3-4.2-14.9
		c0-10.1,3.4-18.1,10.3-23.9c6.9-5.9,16.1-8.8,27.8-8.8c11.8,0,21.1,2.9,27.9,8.8C180.1,70.6,183.5,78.6,183.5,88.7z M158.9,139.7
		c0-4.8-1.2-8.5-3.7-11.1s-5.7-3.9-9.8-3.9c-4,0-7.3,1.3-9.8,3.9c-2.5,2.6-3.8,6.3-3.8,11.1c0,4.6,1.3,8.3,3.8,11
		c2.5,2.7,5.8,4,9.9,4c4,0,7.2-1.3,9.7-4C157.6,148,158.9,144.4,158.9,139.7z M145.3,76.7c-3.6,0-6.4,1.2-8.3,3.6
		c-1.9,2.4-2.8,5.7-2.8,9.9c0,4.2,1,7.5,2.9,10.1c1.9,2.6,4.7,3.8,8.5,3.8c3.7,0,6.4-1.3,8.3-3.8c1.8-2.6,2.8-5.9,2.8-10.1
		c0-4.2-0.9-7.4-2.8-9.8C151.8,77.9,149,76.7,145.3,76.7z"/>
</g>
<g>
	<path class="st2" d="M251.9,189.2H49.1c-4.1,0-7.5-3.4-7.5-7.5v-132c0-4.1,3.4-7.5,7.5-7.5h202.7c4.1,0,7.5,3.4,7.5,7.5v132
		C259.4,185.8,256,189.2,251.9,189.2z M49.1,45.2c-2.5,0-4.5,2-4.5,4.5v132c0,2.5,2,4.5,4.5,4.5h202.7c2.5,0,4.5-2,4.5-4.5v-132
		c0-2.5-2-4.5-4.5-4.5C251.8,45.2,49.1,45.2,49.1,45.2z"/>
</g>
</svg>
