<?xml version="1.0" encoding="utf-8"?>
<!-- Generator: Adobe Illustrator 24.2.3, SVG Export Plug-In . SVG Version: 6.00 Build 0)  -->
<svg version="1.1" id="Layer_2_1_" xmlns="http://www.w3.org/2000/svg" xmlns:xlink="http://www.w3.org/1999/xlink" x="0px" y="0px"
	 viewBox="0 0 300 300" style="enable-background:new 0 0 300 300;" xml:space="preserve">
<style type="text/css">
	.st0{fill:#FFFFFF;}
	.st1{fill:#0F385A;}
	.st2{enable-background:new    ;}
</style>
<g>
	<path class="st0" d="M266,30H35c-2.8,0-5,2.2-5,5v35.1h241V35C271,32.2,268.7,30,266,30z"/>
	<g>
		<path class="st0" d="M30,70.1v125.6c0,2.8,2.2,5,5,5h103.3l-61.7,61.7c-2,2-2,5.1,0,7.1s5.1,2,7.1,0l61.7-61.7V266
			c0,2.8,2.2,5,5,5s5-2.3,5-5v-58.2l61.7,61.7c1,1,2.3,1.5,3.5,1.5s2.6-0.5,3.5-1.5c2-2,2-5.1,0-7.1l-61.7-61.7H266c2.8,0,5-2.3,5-5
			V70.1H30z"/>
	</g>
</g>
<g>
	<path class="st1" d="M251.9,189.2H49.1c-4.1,0-7.5-3.4-7.5-7.5v-132c0-4.1,3.4-7.5,7.5-7.5h202.7c4.1,0,7.5,3.4,7.5,7.5v132
		C259.4,185.8,256,189.2,251.9,189.2z M49.1,45.2c-2.5,0-4.5,2-4.5,4.5v132c0,2.5,2,4.5,4.5,4.5h202.7c2.5,0,4.5-2,4.5-4.5v-132
		c0-2.5-2-4.5-4.5-4.5C251.8,45.2,49.1,45.2,49.1,45.2z"/>
</g>
<g class="st2">
	<path class="st1" d="M119.1,174.6H91.2V86l-27.3,8V72.9l52.6-18.2h2.6V174.6z"/>
	<path class="st1" d="M156.9,116l7.3-61.3h70.1v21.6h-47.5l-2.7,23.8c2-1.2,4.6-2.2,7.8-3.1s6.4-1.3,9.4-1.3
		c11.9,0,21.1,3.5,27.5,10.6c6.4,7.1,9.6,17,9.6,29.7c0,7.7-1.7,14.6-5.1,20.9c-3.4,6.2-8.3,11-14.5,14.4c-6.2,3.3-13.5,5-22,5
		c-7.5,0-14.6-1.6-21.2-4.6s-11.8-7.4-15.5-12.8c-3.7-5.4-5.6-11.5-5.5-18.3h27.8c0.3,4.4,1.7,7.9,4.2,10.4c2.5,2.6,5.8,3.9,10,3.9
		c9.3,0,14-6.9,14-20.7c0-12.8-5.7-19.1-17.1-19.1c-6.5,0-11.3,2.1-14.5,6.2L156.9,116z"/>
</g>
</svg>
