<?xml version="1.0" encoding="utf-8"?>
<!-- Generator: Adobe Illustrator 24.1.1, SVG Export Plug-In . SVG Version: 6.00 Build 0)  -->
<svg version="1.1" id="Layer_2_1_" xmlns="http://www.w3.org/2000/svg" xmlns:xlink="http://www.w3.org/1999/xlink" x="0px" y="0px"
	 viewBox="0 0 300 300" style="enable-background:new 0 0 300 300;" xml:space="preserve">
<style type="text/css">
	.st0{fill:#FFFFFF;}
	.st1{fill:#0F385A;}
</style>
<g>
	<path class="st0" d="M266,30H35c-2.8,0-5,2.2-5,5v35.1h241V35C271,32.2,268.7,30,266,30z"/>
	<g>
		<path class="st0" d="M30,70.1v125.6c0,2.8,2.2,5,5,5h103.3l-61.7,61.7c-2,2-2,5.1,0,7.1s5.1,2,7.1,0l61.7-61.7V266
			c0,2.8,2.2,5,5,5s5-2.3,5-5v-58.2l61.7,61.7c1,1,2.3,1.5,3.5,1.5s2.6-0.5,3.5-1.5c2-2,2-5.1,0-7.1l-61.7-61.7H266c2.8,0,5-2.3,5-5
			V70.1H30z"/>
	</g>
</g>
<g>
	<path class="st1" d="M251.9,189.2H49.1c-4.1,0-7.5-3.4-7.5-7.5v-132c0-4.1,3.4-7.5,7.5-7.5h202.7c4.1,0,7.5,3.4,7.5,7.5v132
		C259.4,185.8,256,189.2,251.9,189.2z M49.1,45.2c-2.5,0-4.5,2-4.5,4.5v132c0,2.5,2,4.5,4.5,4.5h202.7c2.5,0,4.5-2,4.5-4.5v-132
		c0-2.5-2-4.5-4.5-4.5C251.8,45.2,49.1,45.2,49.1,45.2z"/>
</g>
<g>
	<path class="st1" d="M118.5,173.8H91.4V87.5l-26.6,7.8V74.8L116,57h2.5V173.8z"/>
	<path class="st1" d="M235.2,173.8h-81.5v-17.6l37.5-39.5c9.2-10.5,13.9-18.9,13.9-25.1c0-5-1.1-8.8-3.3-11.5
		c-2.2-2.6-5.4-3.9-9.5-3.9c-4.1,0-7.5,1.8-10,5.3c-2.6,3.5-3.8,7.9-3.8,13.1h-27.1c0-7.2,1.8-13.8,5.4-19.8
		c3.6-6.1,8.6-10.8,14.9-14.2c6.4-3.4,13.5-5.1,21.3-5.1c12.6,0,22.3,2.9,29.1,8.7c6.8,5.8,10.2,14.2,10.2,25.1
		c0,4.6-0.9,9.1-2.6,13.4c-1.7,4.4-4.4,8.9-8,13.7c-3.6,4.8-9.4,11.2-17.4,19.2L189.3,153h45.9V173.8z"/>
</g>
</svg>
