<?xml version="1.0" encoding="utf-8"?>
<!-- Generator: Adobe Illustrator 24.3.0, SVG Export Plug-In . SVG Version: 6.00 Build 0)  -->
<svg version="1.1" id="Layer_2_1_" xmlns="http://www.w3.org/2000/svg" xmlns:xlink="http://www.w3.org/1999/xlink" x="0px" y="0px"
	 viewBox="0 0 300 300" style="enable-background:new 0 0 300 300;" xml:space="preserve">
<style type="text/css">
	.st0{fill:#FFFFFF;}
</style>
<g>
	<path class="st0" d="M212.4,62.7c-0.1-1.4-0.3-2.8-0.3-4.2c0-3.8,0-7.7,0-11.4c17-4.5,36.5,8.7,40.8,27.4c0.9,4,1.4,8.1,1.4,12.2
		c0.1,54.8,0.2,109.7-0.1,164.5c-0.1,26.3-15.4,40.9-41.9,40.9c-42,0-84.1,0-126.1,0c-24.4,0-40.1-15.1-40.3-39.5
		c-0.3-55.6-0.3-111.1-0.1-166.7c0.1-25,18.8-42.4,41.8-39.2c0,5.4,0,10.8,0,16.5c-2.6,0.3-4.9,0.6-7.3,1
		C70,65.5,63.4,72.6,63.1,83.1c-0.3,11.1-0.3,22.2-0.3,33.3c0,44,0,87.9,0,131.9c0,19,6.9,25.9,25.7,25.9c41.3,0,82.6,0,123.9,0
		c17.5,0,24.8-7.1,24.8-24.5c0-53.6,0-107.3-0.1-160.9c-0.1-18-4.6-22.8-22.5-25.4C213.9,63.4,213.3,63,212.4,62.7z"/>
	<path class="st0" d="M121.2,36.7c4.1-19.4,14-28.9,29.1-28.7c14.9,0.2,24.6,9.7,28.3,28c0.9,0.2,2.1,0.6,3.2,0.7
		c14.2,0.6,17.5,4.1,17.5,18.6c0,2.7,0.1,5.3,0,8c-0.5,7.5-5.5,12.8-13,12.8c-24.1,0.2-48.2,0.1-72.4,0.1c-1.2,0-2.4-0.1-3.6-0.5
		c-8.3-2.5-11.2-10.8-9.5-26.8c0.8-7.2,5.9-11.7,13.8-12.1C116.7,36.6,118.8,36.7,121.2,36.7z M164.2,36.5
		c-0.2-9.9-7-16.2-15.7-15.2c-8.2,0.9-13.4,7.3-12.2,15.2C145.5,36.5,154.6,36.5,164.2,36.5z"/>
	<path class="st0" d="M202.8,118.2c3.2,2.5,6.8,4.2,8.6,7c1.5,2.4,2.3,7.2,0.9,9.2c-2.5,3.8-6.3,1.9-9.3-0.9
		c-2.5-2.3-4.9-4.6-8.1-7.6c-3,2.9-5.4,6.4-8.8,8.3c-2.3,1.4-5.9,0.6-8.9,0.8c0.1-3-0.7-6.7,0.7-8.9c1.8-2.9,5.3-4.7,9.9-8.5
		c-4.4-3.6-8.2-5.7-10.4-8.9c-1.4-2.1-0.5-5.8-0.6-8.8c3,0.2,6.5-0.5,8.8,0.9c3.2,1.9,5.4,5.4,9.2,9.5c3.3-3.9,5.6-7.8,9-10.3
		c1.9-1.4,5.5-0.6,8.3-0.7c0,3,1,6.5-0.3,8.9C210.1,111.6,206.7,114,202.8,118.2z"/>
	<path class="st0" d="M194.6,217.4c3.3-3.6,5.6-7.4,8.9-9.5c2.2-1.4,5.8-0.4,8.8-0.5c-0.2,3,0.5,6.6-0.9,8.9
		c-1.8,2.9-5.3,4.7-8.5,7.3c3.8,4,7.3,6.5,9.1,9.9c1.3,2.3,0.3,5.9,0.3,8.9c-2.8-0.1-6.1,0.7-8.3-0.5c-3.3-1.8-5.7-5-10.5-9.5
		c-2.5,3.3-4.4,7.2-7.5,9.5c-2.1,1.5-5.8,0.7-8.8,1c0.1-3-0.8-6.6,0.5-8.9c1.7-2.9,5.2-4.8,10.4-9.3c-4.4-3.2-8.4-5-10.7-8.1
		c-1.5-2-0.6-5.8-0.7-8.8c3,0.2,6.5-0.6,8.9,0.7C188.8,210.3,191.1,213.7,194.6,217.4z"/>
	<path class="st0" d="M84.5,123.5c0-3.9,0-7.9,0-12.4c24.5,0,48.8,0,73.6,0c0,3.9,0,7.8,0,12.4C133.9,123.5,109.4,123.5,84.5,123.5z
		"/>
	<path class="st0" d="M84.5,218.3c25.1,0,49,0,73.5,0c0,4.3,0,8.4,0,13c-24.4,0-48.7,0-73.5,0C84.5,226.9,84.5,222.7,84.5,218.3z"/>
	<path class="st0" d="M158.1,177.1c-24.6,0-48.8,0-73.6,0c0-4.2,0-8.2,0-12.8c24.5,0,48.8,0,73.6,0
		C158.1,168.3,158.1,172.3,158.1,177.1z"/>
	<path class="st0" d="M185.4,173.1c10.7-7.6,20.9-14.8,31-22.1c0.8,0.7,1.5,1.5,2.3,2.2c-1,2.1-1.7,4.6-3.2,6.3
		c-7.8,8.8-15.7,17.6-23.9,26.1c-5.1,5.3-8.9,4.8-12.8-1.3c-2.9-4.4-5.2-9.2-7.5-14c-0.5-1.1-0.4-3.5,0.2-3.8c1.3-0.7,3.4-1,4.5-0.3
		C179.3,168.3,182.3,170.8,185.4,173.1z"/>
</g>
</svg>
