<?xml version="1.0" encoding="utf-8"?>
<!-- Generator: Adobe Illustrator 24.3.0, SVG Export Plug-In . SVG Version: 6.00 Build 0)  -->
<svg version="1.1" id="Layer_2_1_" xmlns="http://www.w3.org/2000/svg" xmlns:xlink="http://www.w3.org/1999/xlink" x="0px" y="0px"
	 viewBox="0 0 300 300" style="enable-background:new 0 0 300 300;" xml:space="preserve">
<style type="text/css">
	.st0{fill:#025A85;stroke:#025A85;stroke-width:0.5;stroke-miterlimit:10;}
	.st1{fill:#FFFFFF;}
</style>
<circle class="st0" cx="150" cy="150" r="140.5"/>
<g>
	<path class="st1" d="M195,81.1c-0.1-1-0.2-2.1-0.2-3.1c0-2.8,0-5.7,0-8.4c12.5-3.3,26.9,6.4,30.1,20.2c0.7,3,1,6,1,9
		c0.1,40.4,0.1,81-0.1,121.4c-0.1,19.4-11.4,30.2-30.9,30.2c-31,0-62.1,0-93.1,0c-18,0-29.6-11.1-29.7-29.1c-0.2-41-0.2-82-0.1-123
		c0.1-18.4,13.9-31.3,30.8-28.9c0,4,0,8,0,12.2c-1.9,0.2-3.6,0.4-5.4,0.7c-7.6,1-12.5,6.2-12.7,13.9c-0.2,8.2-0.2,16.4-0.2,24.6
		c0,32.5,0,64.9,0,97.3c0,14,5.1,19.1,19,19.1c30.5,0,61,0,91.4,0c12.9,0,18.3-5.2,18.3-18.1c0-39.6,0-79.2-0.1-118.7
		c-0.1-13.3-3.4-16.8-16.6-18.7C196.1,81.7,195.7,81.4,195,81.1z"/>
	<path class="st1" d="M127.7,62c3-14.3,10.3-21.3,21.5-21.2c11,0.1,18.2,7.2,20.9,20.7c0.7,0.1,1.5,0.4,2.4,0.5
		c10.5,0.4,12.9,3,12.9,13.7c0,2,0.1,3.9,0,5.9c-0.4,5.5-4.1,9.4-9.6,9.4c-17.8,0.1-35.6,0.1-53.4,0.1c-0.9,0-1.8-0.1-2.7-0.4
		c-6.1-1.8-8.3-8-7-19.8c0.6-5.3,4.4-8.6,10.2-8.9C124.4,61.9,125.9,62,127.7,62z M159.4,61.8c-0.1-7.3-5.2-12-11.6-11.2
		c-6.1,0.7-9.9,5.4-9,11.2C145.6,61.8,152.4,61.8,159.4,61.8z"/>
	<path class="st1" d="M187.9,122.1c2.4,1.8,5,3.1,6.3,5.2c1.1,1.8,1.7,5.3,0.7,6.8c-1.8,2.8-4.6,1.4-6.9-0.7c-1.8-1.7-3.6-3.4-6-5.6
		c-2.2,2.1-4,4.7-6.5,6.1c-1.7,1-4.4,0.4-6.6,0.6c0.1-2.2-0.5-4.9,0.5-6.6c1.3-2.1,3.9-3.5,7.3-6.3c-3.2-2.7-6.1-4.2-7.7-6.6
		c-1-1.5-0.4-4.3-0.4-6.5c2.2,0.1,4.8-0.4,6.5,0.7c2.4,1.4,4,4,6.8,7c2.4-2.9,4.1-5.8,6.6-7.6c1.4-1,4.1-0.4,6.1-0.5
		c0,2.2,0.7,4.8-0.2,6.6C193.3,117.2,190.8,119,187.9,122.1z"/>
	<path class="st1" d="M181.9,195.3c2.4-2.7,4.1-5.5,6.6-7c1.6-1,4.3-0.3,6.5-0.4c-0.1,2.2,0.4,4.9-0.7,6.6c-1.3,2.1-3.9,3.5-6.3,5.4
		c2.8,3,5.4,4.8,6.7,7.3c1,1.7,0.2,4.4,0.2,6.6c-2.1-0.1-4.5,0.5-6.1-0.4c-2.4-1.3-4.2-3.7-7.7-7c-1.8,2.4-3.2,5.3-5.5,7
		c-1.5,1.1-4.3,0.5-6.5,0.7c0.1-2.2-0.6-4.9,0.4-6.6c1.3-2.1,3.8-3.5,7.7-6.9c-3.2-2.4-6.2-3.7-7.9-6c-1.1-1.5-0.4-4.3-0.5-6.5
		c2.2,0.1,4.8-0.4,6.6,0.5C177.6,190.1,179.3,192.6,181.9,195.3z"/>
	<path class="st1" d="M100.6,126c0-2.9,0-5.8,0-9.2c18.1,0,36,0,54.3,0c0,2.9,0,5.8,0,9.2C137.1,126,119,126,100.6,126z"/>
	<path class="st1" d="M100.6,196c18.5,0,36.2,0,54.2,0c0,3.2,0,6.2,0,9.6c-18,0-35.9,0-54.2,0C100.6,202.3,100.6,199.2,100.6,196z"
		/>
	<path class="st1" d="M154.9,165.6c-18.2,0-36,0-54.3,0c0-3.1,0-6.1,0-9.4c18.1,0,36,0,54.3,0C154.9,159.1,154.9,162,154.9,165.6z"
		/>
	<path class="st1" d="M175.1,162.6c7.9-5.6,15.4-10.9,22.9-16.3c0.6,0.5,1.1,1.1,1.7,1.6c-0.7,1.5-1.3,3.4-2.4,4.6
		c-5.8,6.5-11.6,13-17.6,19.3c-3.8,3.9-6.6,3.5-9.4-1c-2.1-3.2-3.8-6.8-5.5-10.3c-0.4-0.8-0.3-2.6,0.1-2.8c1-0.5,2.5-0.7,3.3-0.2
		C170.6,159.1,172.8,160.9,175.1,162.6z"/>
</g>
</svg>
