<?xml version="1.0" encoding="utf-8"?>
<!-- Generator: Adobe Illustrator 24.1.1, SVG Export Plug-In . SVG Version: 6.00 Build 0)  -->
<svg version="1.1" id="Layer_3" xmlns="http://www.w3.org/2000/svg" xmlns:xlink="http://www.w3.org/1999/xlink" x="0px" y="0px"
	 viewBox="0 0 300 300" style="enable-background:new 0 0 300 300;" xml:space="preserve">
<style type="text/css">
	.st0{fill:#FFFFFF;}
</style>
<path class="st0" d="M206.6,214.4L186,193.8c-4.1-4.1-9.5-6.3-15.2-6.3s-11.1,2.2-15.2,6.3l-5.5,5.5c-21.6-17.8-42.3-38.6-60.1-60.1
	l5.5-5.5c8.4-8.4,8.4-22,0-30.4L74.9,82.6c-4.1-4.1-9.5-6.3-15.2-6.3c-5.8,0-11.2,2.2-15.2,6.3L33.2,93.9
	c-10.4,10.4-12.1,27-3.9,39.3c33,49.9,76.9,93.8,126.8,126.8c5.1,3.4,11.1,5.2,17.2,5.2c8.3,0,16.2-3.2,22-9.1l11.3-11.3
	c4.1-4.1,6.3-9.5,6.3-15.2S210.7,218.4,206.6,214.4z"/>
<path class="st0" d="M211.3,31.2c-37.1,0-67.4,24.9-67.4,55.5c0,14.4,6.6,28,18.7,38.3l-13.5,27c-0.5,1.1-0.3,2.4,0.5,3.2
	c0.5,0.6,1.3,0.9,2,0.9c0.4,0,0.8-0.1,1.2-0.3l36.1-16.8c7.2,2.1,14.7,3.1,22.4,3.1c37.1,0,67.4-24.9,67.4-55.5
	C278.7,56,248.4,31.2,211.3,31.2z M186,70.5h36.5c1.5,0,2.8,1.3,2.8,2.8c0,1.6-1.3,2.8-2.8,2.8H186c-1.5,0-2.8-1.3-2.8-2.8
	C183.2,71.7,184.5,70.5,186,70.5z M239.4,109.7H186c-1.5,0-2.8-1.3-2.8-2.8c0-1.6,1.3-2.8,2.8-2.8h53.3c1.5,0,2.8,1.3,2.8,2.8
	C242.2,108.5,240.9,109.7,239.4,109.7z M239.4,92.9H186c-1.5,0-2.8-1.3-2.8-2.8c0-1.6,1.3-2.8,2.8-2.8h53.3c1.5,0,2.8,1.3,2.8,2.8
	C242.2,91.6,240.9,92.9,239.4,92.9z"/>
</svg>
