<?xml version="1.0" encoding="utf-8"?>
<!-- Generator: Adobe Illustrator 24.2.0, SVG Export Plug-In . SVG Version: 6.00 Build 0)  -->
<svg version="1.1" id="Layer_2_1_" xmlns="http://www.w3.org/2000/svg" xmlns:xlink="http://www.w3.org/1999/xlink" x="0px" y="0px"
	 viewBox="0 0 300 300" style="enable-background:new 0 0 300 300;" xml:space="preserve">
<style type="text/css">
	.st0{fill:#195D8B;stroke:#195D8B;stroke-width:0.5;stroke-miterlimit:10;}
	.st1{fill:#FFFFFF;}
</style>
<circle class="st0" cx="150" cy="150" r="140.5"/>
<path class="st1" d="M197,220.1l-18.7-18.7c-3.7-3.7-8.6-5.7-13.8-5.7s-10.1,2-13.8,5.7l-5,5c-19.6-16.1-38.3-35-54.5-54.5l5-5
	c7.6-7.6,7.6-19.9,0-27.6l-18.7-18.8c-3.7-3.7-8.6-5.7-13.8-5.7c-5.3,0-10.2,2-13.8,5.7l-10.2,10.2c-9.4,9.4-11,24.5-3.5,35.6
	c29.9,45.2,69.7,85,114.9,114.9c4.6,3.1,10.1,4.7,15.6,4.7c7.5,0,14.7-2.9,19.9-8.2l10.2-10.2c3.7-3.7,5.7-8.6,5.7-13.8
	S200.8,223.7,197,220.1z"/>
<path class="st1" d="M201.3,54c-33.6,0-61.1,22.6-61.1,50.3c0,13.1,6,25.4,16.9,34.7l-12.2,24.5c-0.5,1-0.3,2.2,0.5,2.9
	c0.5,0.5,1.2,0.8,1.8,0.8c0.4,0,0.7-0.1,1.1-0.3l32.7-15.2c6.5,1.9,13.3,2.8,20.3,2.8c33.6,0,61.1-22.6,61.1-50.3
	C262.4,76.5,234.9,54,201.3,54z M178.4,89.6h33.1c1.4,0,2.5,1.2,2.5,2.5c0,1.5-1.2,2.5-2.5,2.5h-33.1c-1.4,0-2.5-1.2-2.5-2.5
	C175.8,90.7,177,89.6,178.4,89.6z M226.8,125.2h-48.4c-1.4,0-2.5-1.2-2.5-2.5c0-1.5,1.2-2.5,2.5-2.5h48.3c1.4,0,2.5,1.2,2.5,2.5
	C229.3,124.1,228.1,125.2,226.8,125.2z M226.8,109.9h-48.4c-1.4,0-2.5-1.2-2.5-2.5c0-1.5,1.2-2.5,2.5-2.5h48.3
	c1.4,0,2.5,1.2,2.5,2.5C229.3,108.7,228.1,109.9,226.8,109.9z"/>
</svg>
