<svg height='300px' width='300px'  fill="#ffffff" xmlns="http://www.w3.org/2000/svg" xmlns:xlink="http://www.w3.org/1999/xlink" version="1.1" x="0px" y="0px" viewBox="0 0 16 16" style="enable-background:new 0 0 16 16;" xml:space="preserve"><path d="M14,3H2C1.448,3,1,3.448,1,4v7c0,0.552,0.448,1,1,1h3.279c0.43,0,0.813-0.275,0.949-0.684l0.823-2.47  c0.304-0.912,1.593-0.912,1.897,0l0.823,2.47C9.908,11.725,10.29,12,10.721,12H14c0.552,0,1-0.448,1-1V4C15,3.448,14.552,3,14,3z   M4.5,9C3.672,9,3,8.328,3,7.5S3.672,6,4.5,6S6,6.672,6,7.5S5.328,9,4.5,9z M11.5,9C10.672,9,10,8.328,10,7.5S10.672,6,11.5,6  S13,6.672,13,7.5S12.328,9,11.5,9z"></path></svg>